# Blender 5.1.0
# www.blender.org
o Plane
v -1.000000 0.000000 1.000000
v 1.000000 0.000000 1.000000
v -1.000000 0.000000 -1.000000
v 1.000000 0.000000 -1.000000
v -1.000000 0.000000 -0.875000
v -1.000000 0.000000 -0.750000
v -1.000000 0.000000 -0.625000
v -1.000000 0.000000 -0.500000
v -1.000000 0.000000 -0.375000
v -1.000000 0.000000 -0.250000
v -1.000000 0.000000 -0.125000
v -1.000000 0.000000 0.000000
v -1.000000 0.000000 0.125000
v -1.000000 0.000000 0.250000
v -1.000000 0.000000 0.375000
v -1.000000 0.000000 0.500000
v -1.000000 0.000000 0.625000
v -1.000000 0.000000 0.750000
v -1.000000 0.000000 0.875000
v -0.875000 0.000000 1.000000
v -0.750000 0.000000 1.000000
v -0.625000 0.000000 1.000000
v -0.500000 0.000000 1.000000
v -0.375000 0.000000 1.000000
v -0.250000 0.000000 1.000000
v -0.125000 0.000000 1.000000
v 0.000000 0.000000 1.000000
v 0.125000 0.000000 1.000000
v 0.250000 0.000000 1.000000
v 0.375000 0.000000 1.000000
v 0.500000 0.000000 1.000000
v 0.625000 0.000000 1.000000
v 0.750000 0.000000 1.000000
v 0.875000 0.000000 1.000000
v 1.000000 0.000000 0.875000
v 1.000000 0.000000 0.750000
v 1.000000 0.000000 0.625000
v 1.000000 0.000000 0.500000
v 1.000000 0.000000 0.375000
v 1.000000 0.000000 0.250000
v 1.000000 0.000000 0.125000
v 1.000000 0.000000 0.000000
v 1.000000 0.000000 -0.125000
v 1.000000 0.000000 -0.250000
v 1.000000 0.000000 -0.375000
v 1.000000 0.000000 -0.500000
v 1.000000 0.000000 -0.625000
v 1.000000 0.000000 -0.750000
v 1.000000 0.000000 -0.875000
v 0.875000 0.000000 -1.000000
v 0.750000 0.000000 -1.000000
v 0.625000 0.000000 -1.000000
v 0.500000 0.000000 -1.000000
v 0.375000 0.000000 -1.000000
v 0.250000 0.000000 -1.000000
v 0.125000 0.000000 -1.000000
v 0.000000 0.000000 -1.000000
v -0.125000 0.000000 -1.000000
v -0.250000 0.000000 -1.000000
v -0.375000 0.000000 -1.000000
v -0.500000 0.000000 -1.000000
v -0.625000 0.000000 -1.000000
v -0.750000 0.000000 -1.000000
v -0.875000 0.000000 -1.000000
v -0.875000 0.000000 0.875000
v -0.750000 0.000000 0.875000
v -0.625000 0.000000 0.875000
v -0.500000 0.000000 0.875000
v -0.375000 0.000000 0.875000
v -0.250000 0.000000 0.875000
v -0.125000 0.000000 0.875000
v 0.000000 0.000000 0.875000
v 0.125000 0.000000 0.875000
v 0.250000 0.000000 0.875000
v 0.375000 0.000000 0.875000
v 0.500000 0.000000 0.875000
v 0.625000 0.000000 0.875000
v 0.750000 0.000000 0.875000
v 0.875000 0.000000 0.875000
v -0.875000 0.000000 0.750000
v -0.750000 0.000000 0.750000
v -0.625000 0.000000 0.750000
v -0.500000 0.000000 0.750000
v -0.375000 0.000000 0.750000
v -0.250000 0.000000 0.750000
v -0.125000 0.000000 0.750000
v 0.000000 0.000000 0.750000
v 0.125000 0.000000 0.750000
v 0.250000 0.000000 0.750000
v 0.375000 0.000000 0.750000
v 0.500000 0.000000 0.750000
v 0.625000 0.000000 0.750000
v 0.750000 0.000000 0.750000
v 0.875000 0.000000 0.750000
v -0.875000 0.000000 0.625000
v -0.750000 0.000000 0.625000
v -0.625000 0.000000 0.625000
v -0.500000 0.000000 0.625000
v -0.375000 0.000000 0.625000
v -0.250000 0.000000 0.625000
v -0.125000 0.000000 0.625000
v 0.000000 0.000000 0.625000
v 0.125000 0.000000 0.625000
v 0.250000 0.000000 0.625000
v 0.375000 0.000000 0.625000
v 0.500000 0.000000 0.625000
v 0.625000 0.000000 0.625000
v 0.750000 0.000000 0.625000
v 0.875000 0.000000 0.625000
v -0.875000 0.000000 0.500000
v -0.750000 0.000000 0.500000
v -0.625000 0.000000 0.500000
v -0.500000 0.000000 0.500000
v -0.375000 0.000000 0.500000
v -0.250000 0.000000 0.500000
v -0.125000 0.000000 0.500000
v 0.000000 0.000000 0.500000
v 0.125000 0.000000 0.500000
v 0.250000 0.000000 0.500000
v 0.375000 0.000000 0.500000
v 0.500000 0.000000 0.500000
v 0.625000 0.000000 0.500000
v 0.750000 0.000000 0.500000
v 0.875000 0.000000 0.500000
v -0.875000 0.000000 0.375000
v -0.750000 0.000000 0.375000
v -0.625000 0.000000 0.375000
v -0.500000 0.000000 0.375000
v -0.375000 0.000000 0.375000
v -0.250000 0.000000 0.375000
v -0.125000 0.000000 0.375000
v 0.000000 0.000000 0.375000
v 0.125000 0.000000 0.375000
v 0.250000 0.000000 0.375000
v 0.375000 0.000000 0.375000
v 0.500000 0.000000 0.375000
v 0.625000 0.000000 0.375000
v 0.750000 0.000000 0.375000
v 0.875000 0.000000 0.375000
v -0.875000 0.000000 0.250000
v -0.750000 0.000000 0.250000
v -0.625000 0.000000 0.250000
v -0.500000 0.000000 0.250000
v -0.375000 0.000000 0.250000
v -0.250000 0.000000 0.250000
v -0.125000 0.000000 0.250000
v 0.000000 0.000000 0.250000
v 0.125000 0.000000 0.250000
v 0.250000 0.000000 0.250000
v 0.375000 0.000000 0.250000
v 0.500000 0.000000 0.250000
v 0.625000 0.000000 0.250000
v 0.750000 0.000000 0.250000
v 0.875000 0.000000 0.250000
v -0.875000 0.000000 0.125000
v -0.750000 0.000000 0.125000
v -0.625000 0.000000 0.125000
v -0.500000 0.000000 0.125000
v -0.375000 0.000000 0.125000
v -0.250000 0.000000 0.125000
v -0.125000 0.000000 0.125000
v 0.000000 0.000000 0.125000
v 0.125000 0.000000 0.125000
v 0.250000 0.000000 0.125000
v 0.375000 0.000000 0.125000
v 0.500000 0.000000 0.125000
v 0.625000 0.000000 0.125000
v 0.750000 0.000000 0.125000
v 0.875000 0.000000 0.125000
v -0.875000 0.000000 -0.000000
v -0.750000 0.000000 0.000000
v -0.625000 0.000000 -0.000000
v -0.500000 0.000000 0.000000
v -0.375000 0.000000 0.000000
v -0.250000 0.000000 0.000000
v -0.125000 0.000000 0.000000
v 0.000000 0.000000 0.000000
v 0.125000 0.000000 0.000000
v 0.250000 0.000000 0.000000
v 0.375000 0.000000 0.000000
v 0.500000 0.000000 0.000000
v 0.625000 0.000000 0.000000
v 0.750000 0.000000 0.000000
v 0.875000 0.000000 0.000000
v -0.875000 0.000000 -0.125000
v -0.750000 0.000000 -0.125000
v -0.625000 0.000000 -0.125000
v -0.500000 0.000000 -0.125000
v -0.375000 0.000000 -0.125000
v -0.250000 0.000000 -0.125000
v -0.125000 0.000000 -0.125000
v 0.000000 0.000000 -0.125000
v 0.125000 0.000000 -0.125000
v 0.250000 0.000000 -0.125000
v 0.375000 0.000000 -0.125000
v 0.500000 0.000000 -0.125000
v 0.625000 0.000000 -0.125000
v 0.750000 0.000000 -0.125000
v 0.875000 0.000000 -0.125000
v -0.875000 0.000000 -0.250000
v -0.750000 0.000000 -0.250000
v -0.625000 0.000000 -0.250000
v -0.500000 0.000000 -0.250000
v -0.375000 0.000000 -0.250000
v -0.250000 0.000000 -0.250000
v -0.125000 0.000000 -0.250000
v 0.000000 0.000000 -0.250000
v 0.125000 0.000000 -0.250000
v 0.250000 0.000000 -0.250000
v 0.375000 0.000000 -0.250000
v 0.500000 0.000000 -0.250000
v 0.625000 0.000000 -0.250000
v 0.750000 0.000000 -0.250000
v 0.875000 0.000000 -0.250000
v -0.875000 0.000000 -0.375000
v -0.750000 0.000000 -0.375000
v -0.625000 0.000000 -0.375000
v -0.500000 0.000000 -0.375000
v -0.375000 0.000000 -0.375000
v -0.250000 0.000000 -0.375000
v -0.125000 0.000000 -0.375000
v -0.000000 0.000000 -0.375000
v 0.125000 0.000000 -0.375000
v 0.250000 0.000000 -0.375000
v 0.375000 0.000000 -0.375000
v 0.500000 0.000000 -0.375000
v 0.625000 0.000000 -0.375000
v 0.750000 0.000000 -0.375000
v 0.875000 0.000000 -0.375000
v -0.875000 0.000000 -0.500000
v -0.750000 0.000000 -0.500000
v -0.625000 0.000000 -0.500000
v -0.500000 0.000000 -0.500000
v -0.375000 0.000000 -0.500000
v -0.250000 0.000000 -0.500000
v -0.125000 0.000000 -0.500000
v 0.000000 0.000000 -0.500000
v 0.125000 0.000000 -0.500000
v 0.250000 0.000000 -0.500000
v 0.375000 0.000000 -0.500000
v 0.500000 0.000000 -0.500000
v 0.625000 0.000000 -0.500000
v 0.750000 0.000000 -0.500000
v 0.875000 0.000000 -0.500000
v -0.875000 0.000000 -0.625000
v -0.750000 0.000000 -0.625000
v -0.625000 0.000000 -0.625000
v -0.500000 0.000000 -0.625000
v -0.375000 0.000000 -0.625000
v -0.250000 0.000000 -0.625000
v -0.125000 0.000000 -0.625000
v 0.000000 0.000000 -0.625000
v 0.125000 0.000000 -0.625000
v 0.250000 0.000000 -0.625000
v 0.375000 0.000000 -0.625000
v 0.500000 0.000000 -0.625000
v 0.625000 0.000000 -0.625000
v 0.750000 0.000000 -0.625000
v 0.875000 0.000000 -0.625000
v -0.875000 0.000000 -0.750000
v -0.750000 0.000000 -0.750000
v -0.625000 0.000000 -0.750000
v -0.500000 0.000000 -0.750000
v -0.375000 0.000000 -0.750000
v -0.250000 0.000000 -0.750000
v -0.125000 0.000000 -0.750000
v 0.000000 0.000000 -0.750000
v 0.125000 0.000000 -0.750000
v 0.250000 0.000000 -0.750000
v 0.375000 0.000000 -0.750000
v 0.500000 0.000000 -0.750000
v 0.625000 0.000000 -0.750000
v 0.750000 0.000000 -0.750000
v 0.875000 0.000000 -0.750000
v -0.875000 0.000000 -0.875000
v -0.750000 0.000000 -0.875000
v -0.625000 0.000000 -0.875000
v -0.500000 0.000000 -0.875000
v -0.375000 0.000000 -0.875000
v -0.250000 0.000000 -0.875000
v -0.125000 0.000000 -0.875000
v 0.000000 0.000000 -0.875000
v 0.125000 0.000000 -0.875000
v 0.250000 0.000000 -0.875000
v 0.375000 0.000000 -0.875000
v 0.500000 0.000000 -0.875000
v 0.625000 0.000000 -0.875000
v 0.750000 0.000000 -0.875000
v 0.875000 0.000000 -0.875000
vn -0.0000 1.0000 -0.0000
vt 0.062588 0.937412
vt 0.125075 0.874925
vt 0.125075 0.937412
vt 0.062588 0.812437
vt 0.062588 0.874925
vt 0.062588 0.749950
vt 0.125075 0.812437
vt 0.125075 0.687463
vt 0.125075 0.749950
vt 0.062588 0.624975
vt 0.062588 0.687463
vt 0.062588 0.562487
vt 0.125075 0.624975
vt 0.125075 0.500000
vt 0.125075 0.562487
vt 0.062588 0.437513
vt 0.062588 0.500000
vt 0.125075 0.375025
vt 0.125075 0.437513
vt 0.062588 0.375025
vt 0.125075 0.312538
vt 0.062588 0.250050
vt 0.062588 0.312538
vt 0.125075 0.187563
vt 0.125075 0.250050
vt 0.062588 0.125075
vt 0.062588 0.187563
vt 0.062588 0.062588
vt 0.125075 0.125075
vt 0.187563 0.874925
vt 0.187563 0.937413
vt 0.187563 0.812438
vt 0.187563 0.687463
vt 0.187563 0.749950
vt 0.187563 0.624975
vt 0.187563 0.562487
vt 0.187562 0.437513
vt 0.187563 0.500000
vt 0.187562 0.375025
vt 0.187562 0.312537
vt 0.187563 0.187563
vt 0.187563 0.250050
vt 0.125075 0.062588
vt 0.187563 0.125075
vt 0.250050 0.937412
vt 0.250050 0.874925
vt 0.250050 0.812438
vt 0.250050 0.749950
vt 0.250050 0.687462
vt 0.250050 0.624975
vt 0.250050 0.562487
vt 0.250050 0.437513
vt 0.250050 0.500000
vt 0.250050 0.312538
vt 0.250050 0.375025
vt 0.250050 0.187563
vt 0.250050 0.250050
vt 0.250050 0.062588
vt 0.250050 0.125075
vt 0.312538 0.874925
vt 0.312538 0.937412
vt 0.312538 0.812437
vt 0.312538 0.687463
vt 0.312538 0.749950
vt 0.312538 0.624975
vt 0.312537 0.500000
vt 0.312538 0.562487
vt 0.312538 0.375025
vt 0.312538 0.437512
vt 0.312538 0.312537
vt 0.312538 0.250050
vt 0.312537 0.187562
vt 0.312538 0.125075
vt 0.375025 0.937412
vt 0.375025 0.874925
vt 0.375025 0.749950
vt 0.375025 0.812437
vt 0.375025 0.624975
vt 0.375025 0.687462
vt 0.375025 0.562487
vt 0.375025 0.500000
vt 0.375025 0.375025
vt 0.375025 0.437512
vt 0.375025 0.250050
vt 0.375025 0.312537
vt 0.375025 0.187563
vt 0.375025 0.125075
vt 0.375025 0.062588
vt 0.437513 0.874925
vt 0.437513 0.937412
vt 0.437513 0.812438
vt 0.437513 0.749950
vt 0.437513 0.624975
vt 0.437513 0.687462
vt 0.437513 0.562487
vt 0.437513 0.437512
vt 0.437513 0.500000
vt 0.437513 0.375025
vt 0.437513 0.312538
vt 0.437513 0.250050
vt 0.437513 0.125075
vt 0.437513 0.187563
vt 0.500000 0.874925
vt 0.500000 0.937413
vt 0.500000 0.812438
vt 0.500000 0.687463
vt 0.500000 0.749950
vt 0.500000 0.624975
vt 0.500000 0.500000
vt 0.500000 0.562487
vt 0.500000 0.437512
vt 0.500000 0.375025
vt 0.500000 0.312537
vt 0.500000 0.250050
vt 0.500000 0.187562
vt 0.437513 0.062588
vt 0.500000 0.125075
vt 0.562488 0.937412
vt 0.562488 0.874925
vt 0.562488 0.812437
vt 0.562488 0.749950
vt 0.562487 0.687462
vt 0.562488 0.624975
vt 0.562488 0.500000
vt 0.562488 0.562487
vt 0.562488 0.437512
vt 0.562488 0.375025
vt 0.562487 0.312537
vt 0.562487 0.250050
vt 0.562488 0.187563
vt 0.562487 0.125075
vt 0.562487 0.062588
vt 0.624975 0.874925
vt 0.624975 0.937412
vt 0.624975 0.812437
vt 0.624975 0.687463
vt 0.624975 0.749950
vt 0.624975 0.624975
vt 0.624975 0.500000
vt 0.624975 0.562487
vt 0.624975 0.375025
vt 0.624975 0.437512
vt 0.624975 0.312537
vt 0.624975 0.250050
vt 0.624975 0.187562
vt 0.624975 0.125075
vt 0.687463 0.937412
vt 0.687463 0.812437
vt 0.687463 0.874925
vt 0.687463 0.687463
vt 0.687463 0.749950
vt 0.687463 0.624975
vt 0.687463 0.562487
vt 0.687463 0.437512
vt 0.687463 0.500000
vt 0.687463 0.375025
vt 0.687463 0.312537
vt 0.687463 0.187562
vt 0.687463 0.250050
vt 0.687463 0.125075
vt 0.624975 0.062587
vt 0.749950 0.937412
vt 0.749950 0.812438
vt 0.749950 0.874925
vt 0.749950 0.749950
vt 0.749950 0.687462
vt 0.749950 0.562487
vt 0.749950 0.624975
vt 0.749950 0.437512
vt 0.749950 0.500000
vt 0.749950 0.312537
vt 0.749950 0.375025
vt 0.749950 0.250050
vt 0.749950 0.187562
vt 0.749950 0.125075
vt 0.749950 0.062588
vt 0.812438 0.874925
vt 0.812438 0.937412
vt 0.812438 0.812437
vt 0.812438 0.687462
vt 0.812438 0.749950
vt 0.812438 0.562487
vt 0.812438 0.624975
vt 0.812438 0.500000
vt 0.812437 0.437512
vt 0.812437 0.375025
vt 0.812438 0.312537
vt 0.812437 0.250050
vt 0.812437 0.125075
vt 0.812437 0.187563
vt 0.874925 0.937412
vt 0.874925 0.874925
vt 0.874925 0.812437
vt 0.874925 0.687463
vt 0.874925 0.749950
vt 0.874925 0.624975
vt 0.874925 0.562487
vt 0.874925 0.500000
vt 0.874925 0.437512
vt 0.874925 0.375025
vt 0.874925 0.250050
vt 0.874925 0.312537
vt 0.874925 0.125075
vt 0.874925 0.187562
vt 0.812437 0.062588
vt 0.937413 0.937412
vt 0.937413 0.874925
vt 0.937413 0.749950
vt 0.937413 0.812437
vt 0.937413 0.687462
vt 0.937413 0.562487
vt 0.937413 0.624975
vt 0.937413 0.500000
vt 0.937413 0.375025
vt 0.937413 0.437512
vt 0.937413 0.312537
vt 0.937413 0.250050
vt 0.937413 0.187562
vt 0.937413 0.125075
vt 0.874925 0.062587
vt 0.000100 0.937412
vt 0.062588 0.999900
vt 0.000100 0.999900
vt 0.000100 0.812438
vt 0.000100 0.874925
vt 0.000100 0.749950
vt 0.000100 0.624975
vt 0.000100 0.687463
vt 0.000100 0.562487
vt 0.000100 0.437513
vt 0.000100 0.500000
vt 0.000100 0.375025
vt 0.000100 0.250050
vt 0.000100 0.312537
vt 0.000100 0.187562
vt 0.000100 0.062588
vt 0.000100 0.125075
vt 0.062588 0.000100
vt 0.125075 0.000100
vt 0.187563 0.000100
vt 0.187563 0.062588
vt 0.250050 0.000100
vt 0.312537 0.062587
vt 0.375025 0.000100
vt 0.437513 0.000100
vt 0.500000 0.062587
vt 0.500000 0.000100
vt 0.562488 0.000100
vt 0.624975 0.000100
vt 0.687463 0.062587
vt 0.749950 0.000100
vt 0.812438 0.000100
vt 0.874925 0.000100
vt 0.937413 0.062588
vt 0.937413 0.000100
vt 0.999900 0.062587
vt 0.999900 0.125075
vt 0.999900 0.187562
vt 0.999900 0.250050
vt 0.999900 0.312537
vt 0.999900 0.375025
vt 0.999900 0.437512
vt 0.999900 0.500000
vt 0.999900 0.562487
vt 0.999900 0.624975
vt 0.999900 0.687462
vt 0.999900 0.749950
vt 0.999900 0.812437
vt 0.999900 0.874925
vt 0.999900 0.937412
vt 0.937413 0.999900
vt 0.999900 0.999900
vt 0.874925 0.999900
vt 0.812438 0.999900
vt 0.749950 0.999900
vt 0.687463 0.999900
vt 0.624975 0.999900
vt 0.562488 0.999900
vt 0.500000 0.999900
vt 0.437513 0.999900
vt 0.375025 0.999900
vt 0.312538 0.999900
vt 0.250050 0.999900
vt 0.187563 0.999900
vt 0.125075 0.999900
vt 0.000100 0.000100
vt 0.312538 0.000100
vt 0.687463 0.000100
vt 0.999900 0.000100
s 0
f 65/1/1 81/2/1 80/3/1
f 67/4/1 81/2/1 66/5/1
f 68/6/1 82/7/1 67/4/1
f 68/6/1 84/8/1 83/9/1
f 70/10/1 84/8/1 69/11/1
f 71/12/1 85/13/1 70/10/1
f 71/12/1 87/14/1 86/15/1
f 73/16/1 87/14/1 72/17/1
f 73/16/1 89/18/1 88/19/1
f 74/20/1 90/21/1 89/18/1
f 76/22/1 90/21/1 75/23/1
f 76/22/1 92/24/1 91/25/1
f 78/26/1 92/24/1 77/27/1
f 79/28/1 93/29/1 78/26/1
f 80/3/1 96/30/1 95/31/1
f 81/2/1 97/32/1 96/30/1
f 83/9/1 97/32/1 82/7/1
f 83/9/1 99/33/1 98/34/1
f 84/8/1 100/35/1 99/33/1
f 86/15/1 100/35/1 85/13/1
f 87/14/1 101/36/1 86/15/1
f 87/14/1 103/37/1 102/38/1
f 88/19/1 104/39/1 103/37/1
f 90/21/1 104/39/1 89/18/1
f 91/25/1 105/40/1 90/21/1
f 91/25/1 107/41/1 106/42/1
f 93/29/1 107/41/1 92/24/1
f 94/43/1 108/44/1 93/29/1
f 96/30/1 110/45/1 95/31/1
f 97/32/1 111/46/1 96/30/1
f 98/34/1 112/47/1 97/32/1
f 99/33/1 113/48/1 98/34/1
f 100/35/1 114/49/1 99/33/1
f 101/36/1 115/50/1 100/35/1
f 102/38/1 116/51/1 101/36/1
f 102/38/1 118/52/1 117/53/1
f 104/39/1 118/52/1 103/37/1
f 104/39/1 120/54/1 119/55/1
f 106/42/1 120/54/1 105/40/1
f 106/42/1 122/56/1 121/57/1
f 108/44/1 122/56/1 107/41/1
f 108/44/1 124/58/1 123/59/1
f 110/45/1 126/60/1 125/61/1
f 112/47/1 126/60/1 111/46/1
f 113/48/1 127/62/1 112/47/1
f 113/48/1 129/63/1 128/64/1
f 114/49/1 130/65/1 129/63/1
f 116/51/1 130/65/1 115/50/1
f 116/51/1 132/66/1 131/67/1
f 118/52/1 132/66/1 117/53/1
f 118/52/1 134/68/1 133/69/1
f 120/54/1 134/68/1 119/55/1
f 121/57/1 135/70/1 120/54/1
f 122/56/1 136/71/1 121/57/1
f 123/59/1 137/72/1 122/56/1
f 124/58/1 138/73/1 123/59/1
f 126/60/1 140/74/1 125/61/1
f 127/62/1 141/75/1 126/60/1
f 127/62/1 143/76/1 142/77/1
f 129/63/1 143/76/1 128/64/1
f 129/63/1 145/78/1 144/79/1
f 130/65/1 146/80/1 145/78/1
f 131/67/1 147/81/1 146/80/1
f 133/69/1 147/81/1 132/66/1
f 133/69/1 149/82/1 148/83/1
f 135/70/1 149/82/1 134/68/1
f 135/70/1 151/84/1 150/85/1
f 136/71/1 152/86/1 151/84/1
f 137/72/1 153/87/1 152/86/1
f 138/73/1 154/88/1 153/87/1
f 140/74/1 156/89/1 155/90/1
f 141/75/1 157/91/1 156/89/1
f 142/77/1 158/92/1 157/91/1
f 144/79/1 158/92/1 143/76/1
f 144/79/1 160/93/1 159/94/1
f 145/78/1 161/95/1 160/93/1
f 147/81/1 161/95/1 146/80/1
f 147/81/1 163/96/1 162/97/1
f 148/83/1 164/98/1 163/96/1
f 149/82/1 165/99/1 164/98/1
f 150/85/1 166/100/1 165/99/1
f 152/86/1 166/100/1 151/84/1
f 152/86/1 168/101/1 167/102/1
f 154/88/1 168/101/1 153/87/1
f 155/90/1 171/103/1 170/104/1
f 156/89/1 172/105/1 171/103/1
f 158/92/1 172/105/1 157/91/1
f 158/92/1 174/106/1 173/107/1
f 160/93/1 174/106/1 159/94/1
f 161/95/1 175/108/1 160/93/1
f 161/95/1 177/109/1 176/110/1
f 163/96/1 177/109/1 162/97/1
f 164/98/1 178/111/1 163/96/1
f 165/99/1 179/112/1 164/98/1
f 166/100/1 180/113/1 165/99/1
f 167/102/1 181/114/1 166/100/1
f 168/101/1 182/115/1 167/102/1
f 169/116/1 183/117/1 168/101/1
f 171/103/1 185/118/1 170/104/1
f 172/105/1 186/119/1 171/103/1
f 173/107/1 187/120/1 172/105/1
f 174/106/1 188/121/1 173/107/1
f 175/108/1 189/122/1 174/106/1
f 176/110/1 190/123/1 175/108/1
f 176/110/1 192/124/1 191/125/1
f 177/109/1 193/126/1 192/124/1
f 178/111/1 194/127/1 193/126/1
f 179/112/1 195/128/1 194/127/1
f 180/113/1 196/129/1 195/128/1
f 181/114/1 197/130/1 196/129/1
f 182/115/1 198/131/1 197/130/1
f 183/117/1 199/132/1 198/131/1
f 185/118/1 201/133/1 200/134/1
f 186/119/1 202/135/1 201/133/1
f 188/121/1 202/135/1 187/120/1
f 188/121/1 204/136/1 203/137/1
f 189/122/1 205/138/1 204/136/1
f 191/125/1 205/138/1 190/123/1
f 191/125/1 207/139/1 206/140/1
f 193/126/1 207/139/1 192/124/1
f 193/126/1 209/141/1 208/142/1
f 194/127/1 210/143/1 209/141/1
f 196/129/1 210/143/1 195/128/1
f 197/130/1 211/144/1 196/129/1
f 198/131/1 212/145/1 197/130/1
f 199/132/1 213/146/1 198/131/1
f 201/133/1 215/147/1 200/134/1
f 201/133/1 217/148/1 216/149/1
f 203/137/1 217/148/1 202/135/1
f 203/137/1 219/150/1 218/151/1
f 205/138/1 219/150/1 204/136/1
f 206/140/1 220/152/1 205/138/1
f 207/139/1 221/153/1 206/140/1
f 207/139/1 223/154/1 222/155/1
f 209/141/1 223/154/1 208/142/1
f 210/143/1 224/156/1 209/141/1
f 211/144/1 225/157/1 210/143/1
f 211/144/1 227/158/1 226/159/1
f 212/145/1 228/160/1 227/158/1
f 214/161/1 228/160/1 213/146/1
f 216/149/1 230/162/1 215/147/1
f 216/149/1 232/163/1 231/164/1
f 217/148/1 233/165/1 232/163/1
f 219/150/1 233/165/1 218/151/1
f 220/152/1 234/166/1 219/150/1
f 220/152/1 236/167/1 235/168/1
f 222/155/1 236/167/1 221/153/1
f 222/155/1 238/169/1 237/170/1
f 224/156/1 238/169/1 223/154/1
f 224/156/1 240/171/1 239/172/1
f 225/157/1 241/173/1 240/171/1
f 226/159/1 242/174/1 241/173/1
f 227/158/1 243/175/1 242/174/1
f 228/160/1 244/176/1 243/175/1
f 230/162/1 246/177/1 245/178/1
f 232/163/1 246/177/1 231/164/1
f 233/165/1 247/179/1 232/163/1
f 233/165/1 249/180/1 248/181/1
f 235/168/1 249/180/1 234/166/1
f 235/168/1 251/182/1 250/183/1
f 236/167/1 252/184/1 251/182/1
f 237/170/1 253/185/1 252/184/1
f 238/169/1 254/186/1 253/185/1
f 240/171/1 254/186/1 239/172/1
f 241/173/1 255/187/1 240/171/1
f 242/174/1 256/188/1 241/173/1
f 242/174/1 258/189/1 257/190/1
f 244/176/1 258/189/1 243/175/1
f 246/177/1 260/191/1 245/178/1
f 247/179/1 261/192/1 246/177/1
f 248/181/1 262/193/1 247/179/1
f 248/181/1 264/194/1 263/195/1
f 249/180/1 265/196/1 264/194/1
f 250/183/1 266/197/1 265/196/1
f 252/184/1 266/197/1 251/182/1
f 253/185/1 267/198/1 252/184/1
f 254/186/1 268/199/1 253/185/1
f 255/187/1 269/200/1 254/186/1
f 255/187/1 271/201/1 270/202/1
f 257/190/1 271/201/1 256/188/1
f 257/190/1 273/203/1 272/204/1
f 259/205/1 273/203/1 258/189/1
f 261/192/1 275/206/1 260/191/1
f 262/193/1 276/207/1 261/192/1
f 262/193/1 278/208/1 277/209/1
f 264/194/1 278/208/1 263/195/1
f 265/196/1 279/210/1 264/194/1
f 265/196/1 281/211/1 280/212/1
f 267/198/1 281/211/1 266/197/1
f 268/199/1 282/213/1 267/198/1
f 268/199/1 284/214/1 283/215/1
f 269/200/1 285/216/1 284/214/1
f 270/202/1 286/217/1 285/216/1
f 271/201/1 287/218/1 286/217/1
f 272/204/1 288/219/1 287/218/1
f 274/220/1 288/219/1 273/203/1
f 20/221/1 19/222/1 1/223/1
f 20/221/1 66/5/1 65/1/1
f 22/224/1 66/5/1 21/225/1
f 23/226/1 67/4/1 22/224/1
f 23/226/1 69/11/1 68/6/1
f 25/227/1 69/11/1 24/228/1
f 26/229/1 70/10/1 25/227/1
f 26/229/1 72/17/1 71/12/1
f 28/230/1 72/17/1 27/231/1
f 28/230/1 74/20/1 73/16/1
f 29/232/1 75/23/1 74/20/1
f 31/233/1 75/23/1 30/234/1
f 31/233/1 77/27/1 76/22/1
f 32/235/1 78/26/1 77/27/1
f 34/236/1 78/26/1 33/237/1
f 34/236/1 35/238/1 79/28/1
f 79/28/1 36/239/1 94/43/1
f 94/43/1 37/240/1 109/241/1
f 37/240/1 124/58/1 109/241/1
f 38/242/1 139/243/1 124/58/1
f 139/243/1 40/244/1 154/88/1
f 40/244/1 169/116/1 154/88/1
f 41/245/1 184/246/1 169/116/1
f 42/247/1 199/132/1 184/246/1
f 43/248/1 214/161/1 199/132/1
f 44/249/1 229/250/1 214/161/1
f 229/250/1 46/251/1 244/176/1
f 46/251/1 259/205/1 244/176/1
f 47/252/1 274/220/1 259/205/1
f 48/253/1 289/254/1 274/220/1
f 49/255/1 50/256/1 289/254/1
f 289/254/1 51/257/1 288/219/1
f 288/219/1 52/258/1 287/218/1
f 286/217/1 52/258/1 53/259/1
f 286/217/1 54/260/1 285/216/1
f 285/216/1 55/261/1 284/214/1
f 283/215/1 55/261/1 56/262/1
f 282/213/1 56/262/1 57/263/1
f 282/213/1 58/264/1 281/211/1
f 280/212/1 58/264/1 59/265/1
f 279/210/1 59/265/1 60/266/1
f 278/208/1 60/266/1 61/267/1
f 277/209/1 61/267/1 62/268/1
f 276/207/1 62/268/1 63/269/1
f 275/206/1 63/269/1 64/270/1
f 5/271/1 64/270/1 3/272/1
f 6/273/1 275/206/1 5/271/1
f 245/178/1 6/273/1 7/274/1
f 230/162/1 7/274/1 8/275/1
f 9/276/1 230/162/1 8/275/1
f 10/277/1 215/147/1 9/276/1
f 185/118/1 10/277/1 11/278/1
f 170/104/1 11/278/1 12/279/1
f 155/90/1 12/279/1 13/280/1
f 14/281/1 155/90/1 13/280/1
f 125/61/1 14/281/1 15/282/1
f 110/45/1 15/282/1 16/283/1
f 95/31/1 16/283/1 17/284/1
f 18/285/1 95/31/1 17/284/1
f 65/1/1 18/285/1 19/222/1
f 65/1/1 66/5/1 81/2/1
f 67/4/1 82/7/1 81/2/1
f 68/6/1 83/9/1 82/7/1
f 68/6/1 69/11/1 84/8/1
f 70/10/1 85/13/1 84/8/1
f 71/12/1 86/15/1 85/13/1
f 71/12/1 72/17/1 87/14/1
f 73/16/1 88/19/1 87/14/1
f 73/16/1 74/20/1 89/18/1
f 74/20/1 75/23/1 90/21/1
f 76/22/1 91/25/1 90/21/1
f 76/22/1 77/27/1 92/24/1
f 78/26/1 93/29/1 92/24/1
f 79/28/1 94/43/1 93/29/1
f 80/3/1 81/2/1 96/30/1
f 81/2/1 82/7/1 97/32/1
f 83/9/1 98/34/1 97/32/1
f 83/9/1 84/8/1 99/33/1
f 84/8/1 85/13/1 100/35/1
f 86/15/1 101/36/1 100/35/1
f 87/14/1 102/38/1 101/36/1
f 87/14/1 88/19/1 103/37/1
f 88/19/1 89/18/1 104/39/1
f 90/21/1 105/40/1 104/39/1
f 91/25/1 106/42/1 105/40/1
f 91/25/1 92/24/1 107/41/1
f 93/29/1 108/44/1 107/41/1
f 94/43/1 109/241/1 108/44/1
f 96/30/1 111/46/1 110/45/1
f 97/32/1 112/47/1 111/46/1
f 98/34/1 113/48/1 112/47/1
f 99/33/1 114/49/1 113/48/1
f 100/35/1 115/50/1 114/49/1
f 101/36/1 116/51/1 115/50/1
f 102/38/1 117/53/1 116/51/1
f 102/38/1 103/37/1 118/52/1
f 104/39/1 119/55/1 118/52/1
f 104/39/1 105/40/1 120/54/1
f 106/42/1 121/57/1 120/54/1
f 106/42/1 107/41/1 122/56/1
f 108/44/1 123/59/1 122/56/1
f 108/44/1 109/241/1 124/58/1
f 110/45/1 111/46/1 126/60/1
f 112/47/1 127/62/1 126/60/1
f 113/48/1 128/64/1 127/62/1
f 113/48/1 114/49/1 129/63/1
f 114/49/1 115/50/1 130/65/1
f 116/51/1 131/67/1 130/65/1
f 116/51/1 117/53/1 132/66/1
f 118/52/1 133/69/1 132/66/1
f 118/52/1 119/55/1 134/68/1
f 120/54/1 135/70/1 134/68/1
f 121/57/1 136/71/1 135/70/1
f 122/56/1 137/72/1 136/71/1
f 123/59/1 138/73/1 137/72/1
f 124/58/1 139/243/1 138/73/1
f 126/60/1 141/75/1 140/74/1
f 127/62/1 142/77/1 141/75/1
f 127/62/1 128/64/1 143/76/1
f 129/63/1 144/79/1 143/76/1
f 129/63/1 130/65/1 145/78/1
f 130/65/1 131/67/1 146/80/1
f 131/67/1 132/66/1 147/81/1
f 133/69/1 148/83/1 147/81/1
f 133/69/1 134/68/1 149/82/1
f 135/70/1 150/85/1 149/82/1
f 135/70/1 136/71/1 151/84/1
f 136/71/1 137/72/1 152/86/1
f 137/72/1 138/73/1 153/87/1
f 138/73/1 139/243/1 154/88/1
f 140/74/1 141/75/1 156/89/1
f 141/75/1 142/77/1 157/91/1
f 142/77/1 143/76/1 158/92/1
f 144/79/1 159/94/1 158/92/1
f 144/79/1 145/78/1 160/93/1
f 145/78/1 146/80/1 161/95/1
f 147/81/1 162/97/1 161/95/1
f 147/81/1 148/83/1 163/96/1
f 148/83/1 149/82/1 164/98/1
f 149/82/1 150/85/1 165/99/1
f 150/85/1 151/84/1 166/100/1
f 152/86/1 167/102/1 166/100/1
f 152/86/1 153/87/1 168/101/1
f 154/88/1 169/116/1 168/101/1
f 155/90/1 156/89/1 171/103/1
f 156/89/1 157/91/1 172/105/1
f 158/92/1 173/107/1 172/105/1
f 158/92/1 159/94/1 174/106/1
f 160/93/1 175/108/1 174/106/1
f 161/95/1 176/110/1 175/108/1
f 161/95/1 162/97/1 177/109/1
f 163/96/1 178/111/1 177/109/1
f 164/98/1 179/112/1 178/111/1
f 165/99/1 180/113/1 179/112/1
f 166/100/1 181/114/1 180/113/1
f 167/102/1 182/115/1 181/114/1
f 168/101/1 183/117/1 182/115/1
f 169/116/1 184/246/1 183/117/1
f 171/103/1 186/119/1 185/118/1
f 172/105/1 187/120/1 186/119/1
f 173/107/1 188/121/1 187/120/1
f 174/106/1 189/122/1 188/121/1
f 175/108/1 190/123/1 189/122/1
f 176/110/1 191/125/1 190/123/1
f 176/110/1 177/109/1 192/124/1
f 177/109/1 178/111/1 193/126/1
f 178/111/1 179/112/1 194/127/1
f 179/112/1 180/113/1 195/128/1
f 180/113/1 181/114/1 196/129/1
f 181/114/1 182/115/1 197/130/1
f 182/115/1 183/117/1 198/131/1
f 183/117/1 184/246/1 199/132/1
f 185/118/1 186/119/1 201/133/1
f 186/119/1 187/120/1 202/135/1
f 188/121/1 203/137/1 202/135/1
f 188/121/1 189/122/1 204/136/1
f 189/122/1 190/123/1 205/138/1
f 191/125/1 206/140/1 205/138/1
f 191/125/1 192/124/1 207/139/1
f 193/126/1 208/142/1 207/139/1
f 193/126/1 194/127/1 209/141/1
f 194/127/1 195/128/1 210/143/1
f 196/129/1 211/144/1 210/143/1
f 197/130/1 212/145/1 211/144/1
f 198/131/1 213/146/1 212/145/1
f 199/132/1 214/161/1 213/146/1
f 201/133/1 216/149/1 215/147/1
f 201/133/1 202/135/1 217/148/1
f 203/137/1 218/151/1 217/148/1
f 203/137/1 204/136/1 219/150/1
f 205/138/1 220/152/1 219/150/1
f 206/140/1 221/153/1 220/152/1
f 207/139/1 222/155/1 221/153/1
f 207/139/1 208/142/1 223/154/1
f 209/141/1 224/156/1 223/154/1
f 210/143/1 225/157/1 224/156/1
f 211/144/1 226/159/1 225/157/1
f 211/144/1 212/145/1 227/158/1
f 212/145/1 213/146/1 228/160/1
f 214/161/1 229/250/1 228/160/1
f 216/149/1 231/164/1 230/162/1
f 216/149/1 217/148/1 232/163/1
f 217/148/1 218/151/1 233/165/1
f 219/150/1 234/166/1 233/165/1
f 220/152/1 235/168/1 234/166/1
f 220/152/1 221/153/1 236/167/1
f 222/155/1 237/170/1 236/167/1
f 222/155/1 223/154/1 238/169/1
f 224/156/1 239/172/1 238/169/1
f 224/156/1 225/157/1 240/171/1
f 225/157/1 226/159/1 241/173/1
f 226/159/1 227/158/1 242/174/1
f 227/158/1 228/160/1 243/175/1
f 228/160/1 229/250/1 244/176/1
f 230/162/1 231/164/1 246/177/1
f 232/163/1 247/179/1 246/177/1
f 233/165/1 248/181/1 247/179/1
f 233/165/1 234/166/1 249/180/1
f 235/168/1 250/183/1 249/180/1
f 235/168/1 236/167/1 251/182/1
f 236/167/1 237/170/1 252/184/1
f 237/170/1 238/169/1 253/185/1
f 238/169/1 239/172/1 254/186/1
f 240/171/1 255/187/1 254/186/1
f 241/173/1 256/188/1 255/187/1
f 242/174/1 257/190/1 256/188/1
f 242/174/1 243/175/1 258/189/1
f 244/176/1 259/205/1 258/189/1
f 246/177/1 261/192/1 260/191/1
f 247/179/1 262/193/1 261/192/1
f 248/181/1 263/195/1 262/193/1
f 248/181/1 249/180/1 264/194/1
f 249/180/1 250/183/1 265/196/1
f 250/183/1 251/182/1 266/197/1
f 252/184/1 267/198/1 266/197/1
f 253/185/1 268/199/1 267/198/1
f 254/186/1 269/200/1 268/199/1
f 255/187/1 270/202/1 269/200/1
f 255/187/1 256/188/1 271/201/1
f 257/190/1 272/204/1 271/201/1
f 257/190/1 258/189/1 273/203/1
f 259/205/1 274/220/1 273/203/1
f 261/192/1 276/207/1 275/206/1
f 262/193/1 277/209/1 276/207/1
f 262/193/1 263/195/1 278/208/1
f 264/194/1 279/210/1 278/208/1
f 265/196/1 280/212/1 279/210/1
f 265/196/1 266/197/1 281/211/1
f 267/198/1 282/213/1 281/211/1
f 268/199/1 283/215/1 282/213/1
f 268/199/1 269/200/1 284/214/1
f 269/200/1 270/202/1 285/216/1
f 270/202/1 271/201/1 286/217/1
f 271/201/1 272/204/1 287/218/1
f 272/204/1 273/203/1 288/219/1
f 274/220/1 289/254/1 288/219/1
f 20/221/1 65/1/1 19/222/1
f 20/221/1 21/225/1 66/5/1
f 22/224/1 67/4/1 66/5/1
f 23/226/1 68/6/1 67/4/1
f 23/226/1 24/228/1 69/11/1
f 25/227/1 70/10/1 69/11/1
f 26/229/1 71/12/1 70/10/1
f 26/229/1 27/231/1 72/17/1
f 28/230/1 73/16/1 72/17/1
f 28/230/1 29/232/1 74/20/1
f 29/232/1 30/234/1 75/23/1
f 31/233/1 76/22/1 75/23/1
f 31/233/1 32/235/1 77/27/1
f 32/235/1 33/237/1 78/26/1
f 34/236/1 79/28/1 78/26/1
f 34/236/1 2/286/1 35/238/1
f 79/28/1 35/238/1 36/239/1
f 94/43/1 36/239/1 37/240/1
f 37/240/1 38/242/1 124/58/1
f 38/242/1 39/287/1 139/243/1
f 139/243/1 39/287/1 40/244/1
f 40/244/1 41/245/1 169/116/1
f 41/245/1 42/247/1 184/246/1
f 42/247/1 43/248/1 199/132/1
f 43/248/1 44/249/1 214/161/1
f 44/249/1 45/288/1 229/250/1
f 229/250/1 45/288/1 46/251/1
f 46/251/1 47/252/1 259/205/1
f 47/252/1 48/253/1 274/220/1
f 48/253/1 49/255/1 289/254/1
f 49/255/1 4/289/1 50/256/1
f 289/254/1 50/256/1 51/257/1
f 288/219/1 51/257/1 52/258/1
f 286/217/1 287/218/1 52/258/1
f 286/217/1 53/259/1 54/260/1
f 285/216/1 54/260/1 55/261/1
f 283/215/1 284/214/1 55/261/1
f 282/213/1 283/215/1 56/262/1
f 282/213/1 57/263/1 58/264/1
f 280/212/1 281/211/1 58/264/1
f 279/210/1 280/212/1 59/265/1
f 278/208/1 279/210/1 60/266/1
f 277/209/1 278/208/1 61/267/1
f 276/207/1 277/209/1 62/268/1
f 275/206/1 276/207/1 63/269/1
f 5/271/1 275/206/1 64/270/1
f 6/273/1 260/191/1 275/206/1
f 245/178/1 260/191/1 6/273/1
f 230/162/1 245/178/1 7/274/1
f 9/276/1 215/147/1 230/162/1
f 10/277/1 200/134/1 215/147/1
f 185/118/1 200/134/1 10/277/1
f 170/104/1 185/118/1 11/278/1
f 155/90/1 170/104/1 12/279/1
f 14/281/1 140/74/1 155/90/1
f 125/61/1 140/74/1 14/281/1
f 110/45/1 125/61/1 15/282/1
f 95/31/1 110/45/1 16/283/1
f 18/285/1 80/3/1 95/31/1
f 65/1/1 80/3/1 18/285/1
