# Blender 4.4.3
# www.blender.org
o Sphere
v 0.000000 0.555570 0.831470
v 0.000000 0.831470 0.555570
v 0.000000 0.980785 0.195090
v 0.000000 1.000000 0.000000
v 0.000000 0.980785 -0.195090
v 0.000000 0.831470 -0.555570
v 0.038060 0.191342 0.980785
v 0.074658 0.375330 0.923880
v 0.108386 0.544895 0.831470
v 0.137950 0.693520 0.707107
v 0.162212 0.815493 0.555570
v 0.180240 0.906127 0.382683
v 0.191342 0.961940 0.195090
v 0.195090 0.980785 0.000000
v 0.191342 0.961940 -0.195090
v 0.180240 0.906127 -0.382683
v 0.162212 0.815493 -0.555570
v 0.137950 0.693520 -0.707107
v 0.108386 0.544895 -0.831470
v 0.074658 0.375330 -0.923880
v 0.038060 0.191342 -0.980785
v 0.074658 0.180240 0.980785
v 0.146447 0.353553 0.923880
v 0.212608 0.513280 0.831470
v 0.270598 0.653281 0.707107
v 0.318190 0.768178 0.555570
v 0.353553 0.853553 0.382683
v 0.375330 0.906127 0.195090
v 0.382683 0.923879 0.000000
v 0.375330 0.906127 -0.195090
v 0.353553 0.853553 -0.382683
v 0.318190 0.768178 -0.555570
v 0.270598 0.653281 -0.707107
v 0.212608 0.513280 -0.831470
v 0.146447 0.353553 -0.923880
v 0.074658 0.180240 -0.980785
v 0.108386 0.162212 0.980785
v 0.212608 0.318190 0.923880
v 0.308658 0.461940 0.831470
v 0.392847 0.587938 0.707107
v 0.461940 0.691342 0.555570
v 0.513280 0.768178 0.382683
v 0.544895 0.815493 0.195090
v 0.555570 0.831469 0.000000
v 0.544895 0.815493 -0.195090
v 0.513280 0.768178 -0.382683
v 0.461940 0.691342 -0.555570
v 0.392847 0.587938 -0.707107
v 0.308658 0.461940 -0.831470
v 0.212608 0.318190 -0.923880
v 0.108386 0.162212 -0.980785
v 0.137950 0.137950 0.980785
v 0.270598 0.270598 0.923880
v 0.392847 0.392847 0.831470
v 0.500000 0.500000 0.707107
v 0.587938 0.587938 0.555570
v 0.653281 0.653281 0.382683
v 0.693520 0.693520 0.195090
v 0.707107 0.707107 0.000000
v 0.693520 0.693520 -0.195090
v 0.653281 0.653281 -0.382683
v 0.587938 0.587938 -0.555570
v 0.500000 0.500000 -0.707107
v 0.392847 0.392847 -0.831470
v 0.270598 0.270598 -0.923880
v 0.137950 0.137950 -0.980785
v 0.162212 0.108386 0.980785
v 0.318190 0.212608 0.923880
v 0.461940 0.308658 0.831470
v 0.587938 0.392847 0.707107
v 0.691342 0.461940 0.555570
v 0.768178 0.513280 0.382683
v 0.815493 0.544895 0.195090
v 0.831470 0.555570 0.000000
v 0.815493 0.544895 -0.195090
v 0.768178 0.513280 -0.382683
v 0.691342 0.461940 -0.555570
v 0.587938 0.392847 -0.707107
v 0.461940 0.308658 -0.831470
v 0.318190 0.212608 -0.923880
v 0.162212 0.108386 -0.980785
v 0.000000 0.000000 1.000000
v 0.180240 0.074658 0.980785
v 0.353553 0.146447 0.923880
v 0.513280 0.212607 0.831470
v 0.653281 0.270598 0.707107
v 0.768178 0.318190 0.555570
v 0.853553 0.353553 0.382683
v 0.906127 0.375330 0.195090
v 0.923879 0.382683 0.000000
v 0.906127 0.375330 -0.195090
v 0.853553 0.353553 -0.382683
v 0.768178 0.318190 -0.555570
v 0.653281 0.270598 -0.707107
v 0.513280 0.212607 -0.831470
v 0.353553 0.146447 -0.923880
v 0.180240 0.074658 -0.980785
v 0.191342 0.038060 0.980785
v 0.375330 0.074658 0.923880
v 0.544895 0.108386 0.831470
v 0.693520 0.137950 0.707107
v 0.815493 0.162212 0.555570
v 0.906127 0.180240 0.382683
v 0.961940 0.191342 0.195090
v 0.980785 0.195090 0.000000
v 0.961940 0.191342 -0.195090
v 0.906127 0.180240 -0.382683
v 0.815493 0.162212 -0.555570
v 0.693520 0.137950 -0.707107
v 0.544895 0.108386 -0.831470
v 0.375330 0.074658 -0.923880
v 0.191342 0.038060 -0.980785
v 0.195090 -0.000000 0.980785
v 0.382683 -0.000000 0.923880
v 0.555570 -0.000000 0.831470
v 0.707107 0.000000 0.707107
v 0.831469 -0.000000 0.555570
v 0.923879 0.000000 0.382683
v 0.980785 -0.000000 0.195090
v 1.000000 -0.000000 0.000000
v 0.980785 -0.000000 -0.195090
v 0.923879 0.000000 -0.382683
v 0.831469 -0.000000 -0.555570
v 0.707107 0.000000 -0.707107
v 0.555570 -0.000000 -0.831470
v 0.382683 -0.000000 -0.923880
v 0.195090 -0.000000 -0.980785
v 0.191342 -0.038060 0.980785
v 0.375330 -0.074658 0.923880
v 0.544895 -0.108386 0.831470
v 0.693520 -0.137950 0.707107
v 0.815493 -0.162212 0.555570
v 0.906127 -0.180240 0.382683
v 0.961940 -0.191342 0.195090
v 0.980785 -0.195090 0.000000
v 0.961940 -0.191342 -0.195090
v 0.906127 -0.180240 -0.382683
v 0.815493 -0.162212 -0.555570
v 0.693520 -0.137950 -0.707107
v 0.544895 -0.108386 -0.831470
v 0.375330 -0.074658 -0.923880
v 0.191342 -0.038060 -0.980785
v 0.180240 -0.074658 0.980785
v 0.353553 -0.146447 0.923880
v 0.513280 -0.212608 0.831470
v 0.653281 -0.270598 0.707107
v 0.768178 -0.318190 0.555570
v 0.853553 -0.353553 0.382683
v 0.906127 -0.375330 0.195090
v 0.923879 -0.382683 0.000000
v 0.906127 -0.375330 -0.195090
v 0.853553 -0.353553 -0.382683
v 0.768178 -0.318190 -0.555570
v 0.653281 -0.270598 -0.707107
v 0.513280 -0.212608 -0.831470
v 0.353553 -0.146447 -0.923880
v 0.180240 -0.074658 -0.980785
v 0.162212 -0.108386 0.980785
v 0.318190 -0.212608 0.923880
v 0.461940 -0.308658 0.831470
v 0.587938 -0.392847 0.707107
v 0.691341 -0.461940 0.555570
v 0.768178 -0.513280 0.382683
v 0.815493 -0.544895 0.195090
v 0.831469 -0.555570 0.000000
v 0.815493 -0.544895 -0.195090
v 0.768178 -0.513280 -0.382683
v 0.691341 -0.461940 -0.555570
v 0.587938 -0.392847 -0.707107
v 0.461940 -0.308658 -0.831470
v 0.318190 -0.212608 -0.923880
v 0.162212 -0.108386 -0.980785
v 0.137950 -0.137950 0.980785
v 0.270598 -0.270598 0.923880
v 0.392847 -0.392847 0.831470
v 0.500000 -0.500000 0.707107
v 0.587938 -0.587938 0.555570
v 0.653281 -0.653281 0.382683
v 0.693520 -0.693520 0.195090
v 0.707106 -0.707107 0.000000
v 0.693520 -0.693520 -0.195090
v 0.653281 -0.653281 -0.382683
v 0.587938 -0.587938 -0.555570
v 0.500000 -0.500000 -0.707107
v 0.392847 -0.392847 -0.831470
v 0.270598 -0.270598 -0.923880
v 0.137950 -0.137950 -0.980785
v 0.108386 -0.162212 0.980785
v 0.212607 -0.318190 0.923880
v 0.308658 -0.461940 0.831470
v 0.392847 -0.587938 0.707107
v 0.461940 -0.691342 0.555570
v 0.513280 -0.768178 0.382683
v 0.544895 -0.815493 0.195090
v 0.555570 -0.831469 0.000000
v 0.544895 -0.815493 -0.195090
v 0.513280 -0.768178 -0.382683
v 0.461940 -0.691342 -0.555570
v 0.392847 -0.587938 -0.707107
v 0.308658 -0.461940 -0.831470
v 0.212607 -0.318190 -0.923880
v 0.108386 -0.162212 -0.980785
v 0.074658 -0.180240 0.980785
v 0.146447 -0.353553 0.923880
v 0.212607 -0.513280 0.831470
v 0.270598 -0.653281 0.707107
v 0.318189 -0.768178 0.555570
v 0.353553 -0.853553 0.382683
v 0.375330 -0.906127 0.195090
v 0.382683 -0.923879 0.000000
v 0.375330 -0.906127 -0.195090
v 0.353553 -0.853553 -0.382683
v 0.318189 -0.768178 -0.555570
v 0.270598 -0.653281 -0.707107
v 0.212607 -0.513280 -0.831470
v 0.146447 -0.353553 -0.923880
v 0.074658 -0.180240 -0.980785
v 0.038060 -0.191342 0.980785
v 0.074658 -0.375330 0.923880
v 0.108386 -0.544895 0.831470
v 0.137950 -0.693520 0.707107
v 0.162212 -0.815493 0.555570
v 0.180240 -0.906127 0.382683
v 0.191342 -0.961939 0.195090
v 0.195090 -0.980785 0.000000
v 0.191342 -0.961939 -0.195090
v 0.180240 -0.906127 -0.382683
v 0.162212 -0.815493 -0.555570
v 0.137950 -0.693520 -0.707107
v 0.108386 -0.544895 -0.831470
v 0.074658 -0.375330 -0.923880
v 0.038060 -0.191342 -0.980785
v -0.000000 -0.195090 0.980785
v -0.000000 -0.382683 0.923880
v -0.000000 -0.555570 0.831470
v -0.000000 -0.707107 0.707107
v -0.000000 -0.831469 0.555570
v 0.000000 -0.923879 0.382683
v -0.000000 -0.980785 0.195090
v -0.000000 -0.999999 0.000000
v -0.000000 -0.980785 -0.195090
v 0.000000 -0.923879 -0.382683
v -0.000000 -0.831469 -0.555570
v -0.000000 -0.707107 -0.707107
v -0.000000 -0.555570 -0.831470
v -0.000000 -0.382683 -0.923880
v -0.000000 -0.195090 -0.980785
v -0.038060 -0.191342 0.980785
v -0.074658 -0.375330 0.923880
v -0.108386 -0.544895 0.831470
v -0.137950 -0.693520 0.707107
v -0.162212 -0.815493 0.555570
v -0.180240 -0.906127 0.382683
v -0.191342 -0.961939 0.195090
v -0.195091 -0.980785 0.000000
v -0.191342 -0.961939 -0.195090
v -0.180240 -0.906127 -0.382683
v -0.162212 -0.815493 -0.555570
v -0.137950 -0.693520 -0.707107
v -0.108386 -0.544895 -0.831470
v -0.074658 -0.375330 -0.923880
v -0.038060 -0.191342 -0.980785
v -0.074658 -0.180240 0.980785
v -0.146447 -0.353553 0.923880
v -0.212608 -0.513280 0.831470
v -0.270598 -0.653281 0.707107
v -0.318190 -0.768177 0.555570
v -0.353553 -0.853553 0.382683
v -0.375330 -0.906127 0.195090
v -0.382683 -0.923879 0.000000
v -0.375330 -0.906127 -0.195090
v -0.353553 -0.853553 -0.382683
v -0.318190 -0.768177 -0.555570
v -0.270598 -0.653281 -0.707107
v -0.212608 -0.513280 -0.831470
v -0.146447 -0.353553 -0.923880
v -0.074658 -0.180240 -0.980785
v -0.108386 -0.162212 0.980785
v -0.212608 -0.318190 0.923880
v -0.308658 -0.461939 0.831470
v -0.392847 -0.587938 0.707107
v -0.461940 -0.691341 0.555570
v -0.513280 -0.768178 0.382683
v -0.544895 -0.815493 0.195090
v -0.555570 -0.831469 0.000000
v -0.544895 -0.815493 -0.195090
v -0.513280 -0.768178 -0.382683
v -0.461940 -0.691341 -0.555570
v -0.392847 -0.587938 -0.707107
v -0.308658 -0.461939 -0.831470
v -0.212608 -0.318190 -0.923880
v -0.108386 -0.162212 -0.980785
v -0.137950 -0.137950 0.980785
v -0.270598 -0.270598 0.923880
v -0.392847 -0.392847 0.831470
v -0.500000 -0.500000 0.707107
v -0.587938 -0.587937 0.555570
v -0.653281 -0.653281 0.382683
v -0.693520 -0.693520 0.195090
v -0.707106 -0.707106 0.000000
v -0.693520 -0.693520 -0.195090
v -0.653281 -0.653281 -0.382683
v -0.587938 -0.587937 -0.555570
v -0.500000 -0.500000 -0.707107
v -0.392847 -0.392847 -0.831470
v -0.270598 -0.270598 -0.923880
v -0.137950 -0.137950 -0.980785
v 0.000000 0.000000 -1.000000
v -0.162212 -0.108386 0.980785
v -0.318190 -0.212607 0.923880
v -0.461940 -0.308658 0.831470
v -0.587938 -0.392847 0.707107
v -0.691341 -0.461939 0.555570
v -0.768177 -0.513280 0.382683
v -0.815493 -0.544895 0.195090
v -0.831469 -0.555569 0.000000
v -0.815493 -0.544895 -0.195090
v -0.768177 -0.513280 -0.382683
v -0.691341 -0.461939 -0.555570
v -0.587938 -0.392847 -0.707107
v -0.461940 -0.308658 -0.831470
v -0.318190 -0.212607 -0.923880
v -0.162212 -0.108386 -0.980785
v -0.180240 -0.074658 0.980785
v -0.353553 -0.146447 0.923880
v -0.513280 -0.212607 0.831470
v -0.653281 -0.270598 0.707107
v -0.768177 -0.318189 0.555570
v -0.853553 -0.353553 0.382683
v -0.906127 -0.375330 0.195090
v -0.923879 -0.382683 0.000000
v -0.906127 -0.375330 -0.195090
v -0.853553 -0.353553 -0.382683
v -0.768177 -0.318189 -0.555570
v -0.653281 -0.270598 -0.707107
v -0.513280 -0.212607 -0.831470
v -0.353553 -0.146447 -0.923880
v -0.180240 -0.074658 -0.980785
v -0.191342 -0.038060 0.980785
v -0.375330 -0.074658 0.923880
v -0.544895 -0.108386 0.831470
v -0.693520 -0.137950 0.707107
v -0.815493 -0.162211 0.555570
v -0.906127 -0.180240 0.382683
v -0.961939 -0.191341 0.195090
v -0.980784 -0.195090 0.000000
v -0.961939 -0.191341 -0.195090
v -0.906127 -0.180240 -0.382683
v -0.815493 -0.162211 -0.555570
v -0.693520 -0.137950 -0.707107
v -0.544895 -0.108386 -0.831470
v -0.375330 -0.074658 -0.923880
v -0.191342 -0.038060 -0.980785
v -0.195090 0.000000 0.980785
v -0.382683 0.000000 0.923880
v -0.555570 0.000000 0.831470
v -0.707107 0.000000 0.707107
v -0.831469 0.000000 0.555570
v -0.923879 0.000000 0.382683
v -0.980785 0.000000 0.195090
v -0.999999 0.000000 0.000000
v -0.980785 0.000000 -0.195090
v -0.923879 0.000000 -0.382683
v -0.831469 0.000000 -0.555570
v -0.707107 0.000000 -0.707107
v -0.555570 0.000000 -0.831470
v -0.382683 0.000000 -0.923880
v -0.195090 0.000000 -0.980785
v -0.191342 0.038060 0.980785
v -0.375330 0.074658 0.923880
v -0.544895 0.108386 0.831470
v -0.693520 0.137950 0.707107
v -0.815493 0.162212 0.555570
v -0.906127 0.180240 0.382683
v -0.961939 0.191342 0.195090
v -0.980784 0.195091 0.000000
v -0.961939 0.191342 -0.195090
v -0.906127 0.180240 -0.382683
v -0.815493 0.162212 -0.555570
v -0.693520 0.137950 -0.707107
v -0.544895 0.108386 -0.831470
v -0.375330 0.074658 -0.923880
v -0.191342 0.038060 -0.980785
v -0.180240 0.074658 0.980785
v -0.353553 0.146447 0.923880
v -0.513279 0.212607 0.831470
v -0.653281 0.270598 0.707107
v -0.768177 0.318190 0.555570
v -0.853553 0.353553 0.382683
v -0.906127 0.375330 0.195090
v -0.923878 0.382683 0.000000
v -0.906127 0.375330 -0.195090
v -0.853553 0.353553 -0.382683
v -0.768177 0.318190 -0.555570
v -0.653281 0.270598 -0.707107
v -0.513279 0.212607 -0.831470
v -0.353553 0.146447 -0.923880
v -0.180240 0.074658 -0.980785
v -0.162212 0.108386 0.980785
v -0.318189 0.212607 0.923880
v -0.461939 0.308658 0.831470
v -0.587938 0.392847 0.707107
v -0.691341 0.461940 0.555570
v -0.768177 0.513280 0.382683
v -0.815493 0.544895 0.195090
v -0.831468 0.555570 0.000000
v -0.815493 0.544895 -0.195090
v -0.768177 0.513280 -0.382683
v -0.691341 0.461940 -0.555570
v -0.587938 0.392847 -0.707107
v -0.461939 0.308658 -0.831470
v -0.318189 0.212607 -0.923880
v -0.162212 0.108386 -0.980785
v -0.137950 0.137950 0.980785
v -0.270598 0.270598 0.923880
v -0.392847 0.392847 0.831470
v -0.500000 0.500000 0.707107
v -0.587937 0.587938 0.555570
v -0.653281 0.653281 0.382683
v -0.693519 0.693520 0.195090
v -0.707106 0.707106 0.000000
v -0.693519 0.693520 -0.195090
v -0.653281 0.653281 -0.382683
v -0.587937 0.587938 -0.555570
v -0.500000 0.500000 -0.707107
v -0.392847 0.392847 -0.831470
v -0.270598 0.270598 -0.923880
v -0.137950 0.137950 -0.980785
v -0.108386 0.162212 0.980785
v -0.212607 0.318190 0.923880
v -0.308658 0.461939 0.831470
v -0.392847 0.587938 0.707107
v -0.461939 0.691341 0.555570
v -0.513280 0.768177 0.382683
v -0.544895 0.815493 0.195090
v -0.555569 0.831469 0.000000
v -0.544895 0.815493 -0.195090
v -0.513280 0.768177 -0.382683
v -0.461939 0.691341 -0.555570
v -0.392847 0.587938 -0.707107
v -0.308658 0.461939 -0.831470
v -0.212607 0.318190 -0.923880
v -0.108386 0.162212 -0.980785
v -0.074658 0.180240 0.980785
v -0.146446 0.353553 0.923880
v -0.212607 0.513279 0.831470
v -0.270598 0.653281 0.707107
v -0.318189 0.768177 0.555570
v -0.353553 0.853553 0.382683
v -0.375330 0.906127 0.195090
v -0.382683 0.923879 0.000000
v -0.375330 0.906127 -0.195090
v -0.353553 0.853553 -0.382683
v -0.318189 0.768177 -0.555570
v -0.270598 0.653281 -0.707107
v -0.212607 0.513279 -0.831470
v -0.146446 0.353553 -0.923880
v -0.074658 0.180240 -0.980785
v -0.038060 0.191342 0.980785
v -0.074658 0.375330 0.923880
v -0.108386 0.544895 0.831470
v -0.137950 0.693520 0.707107
v -0.162211 0.815493 0.555570
v -0.180240 0.906127 0.382683
v -0.191341 0.961939 0.195090
v -0.195090 0.980784 0.000000
v -0.191341 0.961939 -0.195090
v -0.180240 0.906127 -0.382683
v -0.162211 0.815493 -0.555570
v -0.137950 0.693520 -0.707107
v -0.108386 0.544895 -0.831470
v -0.074658 0.375330 -0.923880
v -0.038060 0.191342 -0.980785
v 0.000000 0.195090 0.980785
v 0.000000 0.382683 0.923880
v 0.000000 0.707107 0.707107
v 0.000000 0.923879 0.382683
v 0.000000 0.923879 -0.382683
v 0.000000 0.707107 -0.707107
v 0.000000 0.555570 -0.831470
v 0.000000 0.382683 -0.923880
v 0.000000 0.195090 -0.980785
vn 0.0865 0.8786 0.4696
vn 0.0464 0.4709 -0.8810
vn 0.0938 0.9527 0.2890
vn 0.0286 0.2902 -0.9565
vn 0.0975 0.9904 0.0975
vn 0.0097 0.0980 0.9951
vn 0.0097 0.0980 -0.9951
vn 0.0975 0.9904 -0.0975
vn 0.0286 0.2902 0.9565
vn 0.0938 0.9527 -0.2890
vn 0.0464 0.4709 0.8810
vn 0.0865 0.8786 -0.4696
vn 0.0624 0.6332 0.7715
vn 0.0759 0.7708 -0.6326
vn 0.0759 0.7708 0.6326
vn 0.0624 0.6332 -0.7715
vn 0.2248 0.7412 -0.6326
vn 0.2248 0.7412 0.6326
vn 0.1847 0.6088 -0.7715
vn 0.2563 0.8448 0.4696
vn 0.1374 0.4528 -0.8810
vn 0.2779 0.9161 0.2890
vn 0.0846 0.2790 -0.9565
vn 0.2889 0.9524 0.0976
vn 0.0286 0.0942 0.9951
vn 0.0286 0.0942 -0.9951
vn 0.2889 0.9524 -0.0976
vn 0.0846 0.2790 0.9565
vn 0.2779 0.9161 -0.2890
vn 0.1374 0.4528 0.8810
vn 0.2563 0.8448 -0.4696
vn 0.1847 0.6088 0.7715
vn 0.0464 0.0869 -0.9951
vn 0.4691 0.8777 -0.0975
vn 0.1374 0.2571 0.9565
vn 0.4513 0.8443 -0.2890
vn 0.2230 0.4173 0.8810
vn 0.4162 0.7786 -0.4696
vn 0.2999 0.5611 0.7715
vn 0.3651 0.6831 -0.6326
vn 0.3651 0.6831 0.6326
vn 0.2999 0.5611 -0.7715
vn 0.4162 0.7786 0.4696
vn 0.2230 0.4173 -0.8810
vn 0.4513 0.8443 0.2890
vn 0.1374 0.2571 -0.9565
vn 0.4691 0.8777 0.0975
vn 0.0464 0.0869 0.9951
vn 0.4036 0.4918 -0.7715
vn 0.5601 0.6825 0.4696
vn 0.3002 0.3658 -0.8810
vn 0.6073 0.7400 0.2890
vn 0.1850 0.2254 -0.9565
vn 0.6314 0.7693 0.0975
vn 0.0625 0.0761 0.9951
vn 0.0625 0.0761 -0.9951
vn 0.6314 0.7693 -0.0975
vn 0.1850 0.2254 0.9565
vn 0.6073 0.7400 -0.2890
vn 0.3002 0.3658 0.8810
vn 0.5601 0.6825 -0.4696
vn 0.4036 0.4918 0.7715
vn 0.4913 0.5987 -0.6326
vn 0.4913 0.5987 0.6326
vn 0.2254 0.1850 0.9565
vn 0.7400 0.6073 -0.2890
vn 0.3658 0.3002 0.8810
vn 0.6825 0.5601 -0.4696
vn 0.4918 0.4036 0.7715
vn 0.5987 0.4913 -0.6326
vn 0.5987 0.4913 0.6326
vn 0.4918 0.4036 -0.7715
vn 0.6825 0.5601 0.4696
vn 0.3658 0.3002 -0.8810
vn 0.7400 0.6073 0.2890
vn 0.2254 0.1850 -0.9565
vn 0.7693 0.6314 0.0975
vn 0.0761 0.0625 0.9951
vn 0.0761 0.0625 -0.9951
vn 0.7693 0.6314 -0.0975
vn 0.7786 0.4162 0.4696
vn 0.4173 0.2230 -0.8810
vn 0.8443 0.4513 0.2890
vn 0.2571 0.1374 -0.9565
vn 0.8777 0.4691 0.0975
vn 0.0869 0.0464 0.9951
vn 0.0869 0.0464 -0.9951
vn 0.8777 0.4691 -0.0975
vn 0.2571 0.1374 0.9565
vn 0.8443 0.4513 -0.2890
vn 0.4173 0.2230 0.8810
vn 0.7786 0.4162 -0.4696
vn 0.5611 0.2999 0.7715
vn 0.6831 0.3651 -0.6326
vn 0.6831 0.3651 0.6326
vn 0.5611 0.2999 -0.7715
vn 0.9161 0.2779 -0.2890
vn 0.4528 0.1374 0.8810
vn 0.8448 0.2563 -0.4696
vn 0.6088 0.1847 0.7715
vn 0.7412 0.2248 -0.6326
vn 0.7412 0.2248 0.6326
vn 0.6088 0.1847 -0.7715
vn 0.8448 0.2563 0.4696
vn 0.4528 0.1374 -0.8810
vn 0.9161 0.2779 0.2890
vn 0.2790 0.0846 -0.9565
vn 0.9524 0.2889 0.0975
vn 0.0942 0.0286 0.9951
vn 0.0942 0.0286 -0.9951
vn 0.9524 0.2889 -0.0975
vn 0.2790 0.0846 0.9565
vn 0.4709 0.0464 -0.8810
vn 0.9527 0.0938 0.2890
vn 0.2902 0.0286 -0.9565
vn 0.9904 0.0975 0.0975
vn 0.0980 0.0097 0.9951
vn 0.0980 0.0097 -0.9951
vn 0.9904 0.0975 -0.0975
vn 0.2902 0.0286 0.9565
vn 0.9527 0.0938 -0.2890
vn 0.4709 0.0464 0.8810
vn 0.8786 0.0865 -0.4696
vn 0.6332 0.0624 0.7715
vn 0.7708 0.0759 -0.6326
vn 0.7708 0.0759 0.6326
vn 0.6332 0.0624 -0.7715
vn 0.8786 0.0865 0.4696
vn 0.4709 -0.0464 0.8810
vn 0.8786 -0.0865 -0.4696
vn 0.6332 -0.0624 0.7715
vn 0.7708 -0.0759 -0.6326
vn 0.7708 -0.0759 0.6326
vn 0.6332 -0.0624 -0.7715
vn 0.8786 -0.0865 0.4696
vn 0.4709 -0.0464 -0.8810
vn 0.9527 -0.0938 0.2890
vn 0.2902 -0.0286 -0.9565
vn 0.9904 -0.0976 0.0975
vn 0.0980 -0.0097 0.9951
vn 0.0980 -0.0097 -0.9951
vn 0.9904 -0.0976 -0.0975
vn 0.2902 -0.0286 0.9565
vn 0.9527 -0.0938 -0.2890
vn 0.9161 -0.2779 0.2890
vn 0.2790 -0.0846 -0.9565
vn 0.9524 -0.2889 0.0975
vn 0.0942 -0.0286 0.9951
vn 0.0942 -0.0286 -0.9951
vn 0.9524 -0.2889 -0.0975
vn 0.2790 -0.0846 0.9565
vn 0.9161 -0.2779 -0.2890
vn 0.4528 -0.1374 0.8810
vn 0.8448 -0.2563 -0.4696
vn 0.6088 -0.1847 0.7715
vn 0.7412 -0.2248 -0.6326
vn 0.7412 -0.2248 0.6326
vn 0.6088 -0.1847 -0.7715
vn 0.8448 -0.2563 0.4696
vn 0.4528 -0.1374 -0.8810
vn 0.7786 -0.4162 -0.4696
vn 0.5611 -0.2999 0.7715
vn 0.6831 -0.3651 -0.6326
vn 0.6831 -0.3651 0.6326
vn 0.5611 -0.2999 -0.7715
vn 0.7786 -0.4162 0.4696
vn 0.4173 -0.2230 -0.8810
vn 0.8443 -0.4513 0.2890
vn 0.2571 -0.1374 -0.9565
vn 0.8777 -0.4691 0.0975
vn 0.0869 -0.0464 0.9951
vn 0.0869 -0.0464 -0.9951
vn 0.8777 -0.4691 -0.0975
vn 0.2571 -0.1374 0.9565
vn 0.8443 -0.4513 -0.2890
vn 0.4173 -0.2230 0.8810
vn 0.2254 -0.1850 -0.9565
vn 0.7693 -0.6314 0.0975
vn 0.0761 -0.0625 0.9951
vn 0.0761 -0.0625 -0.9951
vn 0.7693 -0.6314 -0.0975
vn 0.2254 -0.1850 0.9565
vn 0.7400 -0.6073 -0.2890
vn 0.3658 -0.3002 0.8810
vn 0.6825 -0.5601 -0.4696
vn 0.4918 -0.4036 0.7715
vn 0.5987 -0.4913 -0.6326
vn 0.5987 -0.4913 0.6326
vn 0.4918 -0.4036 -0.7715
vn 0.6825 -0.5601 0.4696
vn 0.3658 -0.3002 -0.8810
vn 0.7400 -0.6073 0.2890
vn 0.4913 -0.5987 -0.6326
vn 0.4913 -0.5987 0.6326
vn 0.4036 -0.4918 -0.7715
vn 0.5601 -0.6825 0.4696
vn 0.3002 -0.3658 -0.8810
vn 0.6073 -0.7400 0.2890
vn 0.1850 -0.2254 -0.9565
vn 0.6314 -0.7693 0.0975
vn 0.0625 -0.0761 0.9951
vn 0.0625 -0.0761 -0.9951
vn 0.6314 -0.7693 -0.0975
vn 0.1850 -0.2254 0.9565
vn 0.6073 -0.7400 -0.2890
vn 0.3002 -0.3658 0.8810
vn 0.5601 -0.6825 -0.4696
vn 0.4036 -0.4918 0.7715
vn 0.0464 -0.0869 0.9951
vn 0.0464 -0.0869 -0.9951
vn 0.4691 -0.8777 -0.0975
vn 0.1374 -0.2571 0.9565
vn 0.4513 -0.8443 -0.2890
vn 0.2230 -0.4173 0.8810
vn 0.4162 -0.7786 -0.4696
vn 0.2999 -0.5611 0.7715
vn 0.3651 -0.6831 -0.6326
vn 0.3651 -0.6831 0.6326
vn 0.2999 -0.5611 -0.7715
vn 0.4162 -0.7786 0.4696
vn 0.2230 -0.4173 -0.8810
vn 0.4513 -0.8443 0.2890
vn 0.1374 -0.2571 -0.9565
vn 0.4691 -0.8777 0.0975
vn 0.2248 -0.7412 0.6326
vn 0.1847 -0.6088 -0.7715
vn 0.2563 -0.8448 0.4696
vn 0.1374 -0.4528 -0.8810
vn 0.2779 -0.9161 0.2890
vn 0.0846 -0.2790 -0.9565
vn 0.2889 -0.9524 0.0975
vn 0.0286 -0.0942 0.9951
vn 0.0286 -0.0942 -0.9951
vn 0.2889 -0.9524 -0.0975
vn 0.0846 -0.2790 0.9565
vn 0.2779 -0.9161 -0.2890
vn 0.1374 -0.4528 0.8810
vn 0.2563 -0.8448 -0.4696
vn 0.1847 -0.6088 0.7715
vn 0.2248 -0.7412 -0.6326
vn 0.0975 -0.9904 -0.0975
vn 0.0286 -0.2902 0.9565
vn 0.0938 -0.9527 -0.2890
vn 0.0464 -0.4709 0.8810
vn 0.0865 -0.8786 -0.4696
vn 0.0624 -0.6332 0.7715
vn 0.0759 -0.7708 -0.6326
vn 0.0759 -0.7708 0.6326
vn 0.0624 -0.6332 -0.7715
vn 0.0865 -0.8786 0.4696
vn 0.0464 -0.4709 -0.8810
vn 0.0938 -0.9527 0.2890
vn 0.0286 -0.2902 -0.9565
vn 0.0975 -0.9904 0.0975
vn 0.0097 -0.0980 0.9951
vn 0.0097 -0.0980 -0.9951
vn -0.0624 -0.6332 -0.7715
vn -0.0865 -0.8786 0.4696
vn -0.0464 -0.4709 -0.8810
vn -0.0938 -0.9527 0.2890
vn -0.0286 -0.2902 -0.9565
vn -0.0976 -0.9904 0.0975
vn -0.0097 -0.0980 0.9951
vn -0.0097 -0.0980 -0.9951
vn -0.0976 -0.9904 -0.0975
vn -0.0286 -0.2902 0.9565
vn -0.0938 -0.9527 -0.2890
vn -0.0464 -0.4709 0.8810
vn -0.0865 -0.8786 -0.4696
vn -0.0624 -0.6332 0.7715
vn -0.0759 -0.7708 -0.6326
vn -0.0759 -0.7708 0.6326
vn -0.0846 -0.2790 0.9565
vn -0.2779 -0.9161 -0.2890
vn -0.1374 -0.4528 0.8810
vn -0.2563 -0.8448 -0.4696
vn -0.1847 -0.6088 0.7715
vn -0.2248 -0.7412 -0.6326
vn -0.2248 -0.7412 0.6326
vn -0.1847 -0.6088 -0.7715
vn -0.2563 -0.8448 0.4696
vn -0.1374 -0.4528 -0.8810
vn -0.2779 -0.9161 0.2890
vn -0.0846 -0.2790 -0.9565
vn -0.2889 -0.9524 0.0975
vn -0.0286 -0.0942 0.9951
vn -0.0286 -0.0942 -0.9951
vn -0.2889 -0.9524 -0.0975
vn -0.4162 -0.7786 0.4696
vn -0.2230 -0.4173 -0.8810
vn -0.4513 -0.8443 0.2890
vn -0.1374 -0.2571 -0.9565
vn -0.4691 -0.8777 0.0975
vn -0.0464 -0.0869 0.9951
vn -0.0464 -0.0869 -0.9951
vn -0.4691 -0.8777 -0.0975
vn -0.1374 -0.2571 0.9565
vn -0.4513 -0.8443 -0.2890
vn -0.2230 -0.4173 0.8810
vn -0.4162 -0.7786 -0.4696
vn -0.2999 -0.5611 0.7715
vn -0.3651 -0.6831 -0.6326
vn -0.3651 -0.6831 0.6326
vn -0.2999 -0.5611 -0.7715
vn -0.6073 -0.7400 -0.2890
vn -0.3002 -0.3658 0.8810
vn -0.5601 -0.6825 -0.4696
vn -0.4036 -0.4918 0.7715
vn -0.4913 -0.5987 -0.6326
vn -0.4913 -0.5987 0.6326
vn -0.4036 -0.4918 -0.7715
vn -0.5601 -0.6825 0.4696
vn -0.3002 -0.3658 -0.8810
vn -0.6073 -0.7400 0.2890
vn -0.1850 -0.2254 -0.9565
vn -0.6314 -0.7693 0.0975
vn -0.0625 -0.0761 0.9951
vn -0.0625 -0.0761 -0.9951
vn -0.6314 -0.7693 -0.0975
vn -0.1850 -0.2254 0.9565
vn -0.3658 -0.3002 -0.8810
vn -0.7400 -0.6073 0.2890
vn -0.2254 -0.1850 -0.9565
vn -0.7693 -0.6314 0.0975
vn -0.0761 -0.0625 0.9951
vn -0.0761 -0.0625 -0.9951
vn -0.7693 -0.6314 -0.0975
vn -0.2254 -0.1850 0.9565
vn -0.7400 -0.6073 -0.2890
vn -0.3658 -0.3002 0.8810
vn -0.6825 -0.5601 -0.4696
vn -0.4918 -0.4036 0.7715
vn -0.5987 -0.4913 -0.6326
vn -0.5987 -0.4913 0.6326
vn -0.4918 -0.4036 -0.7715
vn -0.6825 -0.5601 0.4696
vn -0.7786 -0.4162 -0.4696
vn -0.5611 -0.2999 0.7715
vn -0.6831 -0.3651 -0.6326
vn -0.6831 -0.3651 0.6326
vn -0.5611 -0.2999 -0.7715
vn -0.7786 -0.4162 0.4696
vn -0.4173 -0.2230 -0.8810
vn -0.8443 -0.4513 0.2890
vn -0.2571 -0.1374 -0.9565
vn -0.8777 -0.4691 0.0975
vn -0.0869 -0.0464 0.9951
vn -0.0869 -0.0464 -0.9951
vn -0.8777 -0.4691 -0.0975
vn -0.2571 -0.1374 0.9565
vn -0.8443 -0.4513 -0.2890
vn -0.4173 -0.2230 0.8810
vn -0.2790 -0.0846 -0.9565
vn -0.9524 -0.2889 0.0975
vn -0.0942 -0.0286 0.9951
vn -0.0942 -0.0286 -0.9951
vn -0.9524 -0.2889 -0.0975
vn -0.2790 -0.0846 0.9565
vn -0.9161 -0.2779 -0.2890
vn -0.4528 -0.1374 0.8810
vn -0.8448 -0.2563 -0.4696
vn -0.6088 -0.1847 0.7715
vn -0.7412 -0.2248 -0.6326
vn -0.7412 -0.2248 0.6326
vn -0.6088 -0.1847 -0.7715
vn -0.8448 -0.2563 0.4696
vn -0.4528 -0.1374 -0.8810
vn -0.9161 -0.2779 0.2890
vn -0.6332 -0.0624 0.7715
vn -0.7708 -0.0759 -0.6326
vn -0.7708 -0.0759 0.6326
vn -0.6332 -0.0624 -0.7715
vn -0.8786 -0.0865 0.4696
vn -0.4709 -0.0464 -0.8810
vn -0.9527 -0.0938 0.2890
vn -0.2902 -0.0286 -0.9565
vn -0.9904 -0.0975 0.0975
vn -0.0980 -0.0097 0.9951
vn -0.0980 -0.0097 -0.9951
vn -0.9904 -0.0975 -0.0975
vn -0.2902 -0.0286 0.9565
vn -0.9527 -0.0938 -0.2890
vn -0.4709 -0.0464 0.8810
vn -0.8786 -0.0865 -0.4696
vn -0.9904 0.0976 0.0975
vn -0.0980 0.0097 0.9951
vn -0.0980 0.0097 -0.9951
vn -0.9904 0.0976 -0.0975
vn -0.2902 0.0286 0.9565
vn -0.9527 0.0938 -0.2890
vn -0.4709 0.0464 0.8810
vn -0.8786 0.0865 -0.4696
vn -0.6332 0.0624 0.7715
vn -0.7708 0.0759 -0.6326
vn -0.7708 0.0759 0.6326
vn -0.6332 0.0624 -0.7715
vn -0.8786 0.0865 0.4696
vn -0.4709 0.0464 -0.8810
vn -0.9527 0.0938 0.2890
vn -0.2902 0.0286 -0.9565
vn -0.7412 0.2248 -0.6326
vn -0.7412 0.2248 0.6326
vn -0.6088 0.1847 -0.7715
vn -0.8448 0.2563 0.4696
vn -0.4528 0.1374 -0.8810
vn -0.9161 0.2779 0.2890
vn -0.2790 0.0846 -0.9565
vn -0.9524 0.2889 0.0975
vn -0.0942 0.0286 0.9951
vn -0.0942 0.0286 -0.9951
vn -0.9524 0.2889 -0.0975
vn -0.2790 0.0846 0.9565
vn -0.9161 0.2779 -0.2890
vn -0.4528 0.1374 0.8810
vn -0.8448 0.2563 -0.4696
vn -0.6088 0.1847 0.7715
vn -0.0869 0.0464 0.9951
vn -0.0869 0.0464 -0.9951
vn -0.8777 0.4691 -0.0975
vn -0.2571 0.1374 0.9565
vn -0.8443 0.4513 -0.2890
vn -0.4173 0.2231 0.8810
vn -0.7786 0.4162 -0.4696
vn -0.5611 0.2999 0.7715
vn -0.6831 0.3651 -0.6326
vn -0.6831 0.3651 0.6326
vn -0.5611 0.2999 -0.7715
vn -0.7786 0.4162 0.4696
vn -0.4173 0.2231 -0.8810
vn -0.8443 0.4513 0.2890
vn -0.2571 0.1374 -0.9565
vn -0.8777 0.4691 0.0975
vn -0.5987 0.4913 0.6326
vn -0.4918 0.4036 -0.7715
vn -0.6825 0.5601 0.4696
vn -0.3658 0.3002 -0.8810
vn -0.7400 0.6073 0.2890
vn -0.2254 0.1850 -0.9565
vn -0.7693 0.6314 0.0975
vn -0.0761 0.0625 0.9951
vn -0.0761 0.0625 -0.9951
vn -0.7693 0.6314 -0.0975
vn -0.2254 0.1850 0.9565
vn -0.7400 0.6073 -0.2890
vn -0.3658 0.3002 0.8810
vn -0.6825 0.5601 -0.4696
vn -0.4918 0.4036 0.7715
vn -0.5987 0.4913 -0.6326
vn -0.6314 0.7693 -0.0975
vn -0.1850 0.2254 0.9565
vn -0.6073 0.7400 -0.2890
vn -0.3002 0.3658 0.8810
vn -0.5601 0.6825 -0.4696
vn -0.4036 0.4918 0.7715
vn -0.4913 0.5987 -0.6326
vn -0.4913 0.5987 0.6326
vn -0.4036 0.4918 -0.7715
vn -0.5601 0.6825 0.4696
vn -0.3002 0.3658 -0.8810
vn -0.6073 0.7400 0.2890
vn -0.1850 0.2254 -0.9565
vn -0.6314 0.7693 0.0975
vn -0.0625 0.0761 0.9951
vn -0.0625 0.0761 -0.9951
vn -0.2999 0.5611 -0.7715
vn -0.4162 0.7786 0.4696
vn -0.2230 0.4173 -0.8810
vn -0.4513 0.8443 0.2890
vn -0.1374 0.2571 -0.9565
vn -0.4691 0.8777 0.0975
vn -0.0464 0.0869 0.9951
vn -0.0464 0.0869 -0.9951
vn -0.4691 0.8777 -0.0975
vn -0.1374 0.2571 0.9565
vn -0.4513 0.8443 -0.2890
vn -0.2230 0.4173 0.8810
vn -0.4162 0.7786 -0.4696
vn -0.2999 0.5611 0.7715
vn -0.3651 0.6831 -0.6326
vn -0.3651 0.6831 0.6326
vn -0.2779 0.9161 -0.2890
vn -0.1374 0.4528 0.8810
vn -0.2563 0.8448 -0.4696
vn -0.1847 0.6088 0.7715
vn -0.2248 0.7412 -0.6326
vn -0.2248 0.7412 0.6326
vn -0.1847 0.6088 -0.7715
vn -0.2563 0.8448 0.4696
vn -0.1374 0.4528 -0.8810
vn -0.2779 0.9161 0.2890
vn -0.0846 0.2790 -0.9565
vn -0.2889 0.9524 0.0975
vn -0.0286 0.0942 0.9951
vn -0.0286 0.0942 -0.9951
vn -0.2889 0.9524 -0.0975
vn -0.0846 0.2790 0.9565
vn -0.0464 0.4709 -0.8810
vn -0.0938 0.9527 0.2890
vn -0.0286 0.2902 -0.9565
vn -0.0976 0.9904 0.0975
vn -0.0097 0.0980 0.9951
vn -0.0097 0.0980 -0.9951
vn -0.0976 0.9904 -0.0975
vn -0.0286 0.2902 0.9565
vn -0.0938 0.9527 -0.2890
vn -0.0464 0.4709 0.8810
vn -0.0865 0.8786 -0.4696
vn -0.0624 0.6332 0.7715
vn -0.0759 0.7708 -0.6326
vn -0.0759 0.7708 0.6326
vn -0.0624 0.6332 -0.7715
vn -0.0865 0.8786 0.4696
s 0
f 477//1 2//1 11//1 12//1
f 481//2 480//2 19//2 20//2
f 3//3 477//3 12//3 13//3
f 482//4 481//4 20//4 21//4
f 4//5 3//5 13//5 14//5
f 474//6 82//6 7//6
f 308//7 482//7 21//7
f 5//8 4//8 14//8 15//8
f 475//9 474//9 7//9 8//9
f 478//10 5//10 15//10 16//10
f 1//11 475//11 8//11 9//11
f 6//12 478//12 16//12 17//12
f 476//13 1//13 9//13 10//13
f 479//14 6//14 17//14 18//14
f 2//15 476//15 10//15 11//15
f 480//16 479//16 18//16 19//16
f 18//17 17//17 32//17 33//17
f 11//18 10//18 25//18 26//18
f 19//19 18//19 33//19 34//19
f 12//20 11//20 26//20 27//20
f 20//21 19//21 34//21 35//21
f 13//22 12//22 27//22 28//22
f 21//23 20//23 35//23 36//23
f 14//24 13//24 28//24 29//24
f 7//25 82//25 22//25
f 308//26 21//26 36//26
f 15//27 14//27 29//27 30//27
f 8//28 7//28 22//28 23//28
f 16//29 15//29 30//29 31//29
f 9//30 8//30 23//30 24//30
f 17//31 16//31 31//31 32//31
f 10//32 9//32 24//32 25//32
f 308//33 36//33 51//33
f 30//34 29//34 44//34 45//34
f 23//35 22//35 37//35 38//35
f 31//36 30//36 45//36 46//36
f 24//37 23//37 38//37 39//37
f 32//38 31//38 46//38 47//38
f 25//39 24//39 39//39 40//39
f 33//40 32//40 47//40 48//40
f 26//41 25//41 40//41 41//41
f 34//42 33//42 48//42 49//42
f 27//43 26//43 41//43 42//43
f 35//44 34//44 49//44 50//44
f 28//45 27//45 42//45 43//45
f 36//46 35//46 50//46 51//46
f 29//47 28//47 43//47 44//47
f 22//48 82//48 37//48
f 49//49 48//49 63//49 64//49
f 42//50 41//50 56//50 57//50
f 50//51 49//51 64//51 65//51
f 43//52 42//52 57//52 58//52
f 51//53 50//53 65//53 66//53
f 44//54 43//54 58//54 59//54
f 37//55 82//55 52//55
f 308//56 51//56 66//56
f 45//57 44//57 59//57 60//57
f 38//58 37//58 52//58 53//58
f 46//59 45//59 60//59 61//59
f 39//60 38//60 53//60 54//60
f 47//61 46//61 61//61 62//61
f 40//62 39//62 54//62 55//62
f 48//63 47//63 62//63 63//63
f 41//64 40//64 55//64 56//64
f 53//65 52//65 67//65 68//65
f 61//66 60//66 75//66 76//66
f 54//67 53//67 68//67 69//67
f 62//68 61//68 76//68 77//68
f 55//69 54//69 69//69 70//69
f 63//70 62//70 77//70 78//70
f 56//71 55//71 70//71 71//71
f 64//72 63//72 78//72 79//72
f 57//73 56//73 71//73 72//73
f 65//74 64//74 79//74 80//74
f 58//75 57//75 72//75 73//75
f 66//76 65//76 80//76 81//76
f 59//77 58//77 73//77 74//77
f 52//78 82//78 67//78
f 308//79 66//79 81//79
f 60//80 59//80 74//80 75//80
f 72//81 71//81 87//81 88//81
f 80//82 79//82 95//82 96//82
f 73//83 72//83 88//83 89//83
f 81//84 80//84 96//84 97//84
f 74//85 73//85 89//85 90//85
f 67//86 82//86 83//86
f 308//87 81//87 97//87
f 75//88 74//88 90//88 91//88
f 68//89 67//89 83//89 84//89
f 76//90 75//90 91//90 92//90
f 69//91 68//91 84//91 85//91
f 77//92 76//92 92//92 93//92
f 70//93 69//93 85//93 86//93
f 78//94 77//94 93//94 94//94
f 71//95 70//95 86//95 87//95
f 79//96 78//96 94//96 95//96
f 92//97 91//97 106//97 107//97
f 85//98 84//98 99//98 100//98
f 93//99 92//99 107//99 108//99
f 86//100 85//100 100//100 101//100
f 94//101 93//101 108//101 109//101
f 87//102 86//102 101//102 102//102
f 95//103 94//103 109//103 110//103
f 88//104 87//104 102//104 103//104
f 96//105 95//105 110//105 111//105
f 89//106 88//106 103//106 104//106
f 97//107 96//107 111//107 112//107
f 90//108 89//108 104//108 105//108
f 83//109 82//109 98//109
f 308//110 97//110 112//110
f 91//111 90//111 105//111 106//111
f 84//112 83//112 98//112 99//112
f 111//113 110//113 125//113 126//113
f 104//114 103//114 118//114 119//114
f 112//115 111//115 126//115 127//115
f 105//116 104//116 119//116 120//116
f 98//117 82//117 113//117
f 308//118 112//118 127//118
f 106//119 105//119 120//119 121//119
f 99//120 98//120 113//120 114//120
f 107//121 106//121 121//121 122//121
f 100//122 99//122 114//122 115//122
f 108//123 107//123 122//123 123//123
f 101//124 100//124 115//124 116//124
f 109//125 108//125 123//125 124//125
f 102//126 101//126 116//126 117//126
f 110//127 109//127 124//127 125//127
f 103//128 102//128 117//128 118//128
f 115//129 114//129 129//129 130//129
f 123//130 122//130 137//130 138//130
f 116//131 115//131 130//131 131//131
f 124//132 123//132 138//132 139//132
f 117//133 116//133 131//133 132//133
f 125//134 124//134 139//134 140//134
f 118//135 117//135 132//135 133//135
f 126//136 125//136 140//136 141//136
f 119//137 118//137 133//137 134//137
f 127//138 126//138 141//138 142//138
f 120//139 119//139 134//139 135//139
f 113//140 82//140 128//140
f 308//141 127//141 142//141
f 121//142 120//142 135//142 136//142
f 114//143 113//143 128//143 129//143
f 122//144 121//144 136//144 137//144
f 134//145 133//145 148//145 149//145
f 142//146 141//146 156//146 157//146
f 135//147 134//147 149//147 150//147
f 128//148 82//148 143//148
f 308//149 142//149 157//149
f 136//150 135//150 150//150 151//150
f 129//151 128//151 143//151 144//151
f 137//152 136//152 151//152 152//152
f 130//153 129//153 144//153 145//153
f 138//154 137//154 152//154 153//154
f 131//155 130//155 145//155 146//155
f 139//156 138//156 153//156 154//156
f 132//157 131//157 146//157 147//157
f 140//158 139//158 154//158 155//158
f 133//159 132//159 147//159 148//159
f 141//160 140//160 155//160 156//160
f 153//161 152//161 167//161 168//161
f 146//162 145//162 160//162 161//162
f 154//163 153//163 168//163 169//163
f 147//164 146//164 161//164 162//164
f 155//165 154//165 169//165 170//165
f 148//166 147//166 162//166 163//166
f 156//167 155//167 170//167 171//167
f 149//168 148//168 163//168 164//168
f 157//169 156//169 171//169 172//169
f 150//170 149//170 164//170 165//170
f 143//171 82//171 158//171
f 308//172 157//172 172//172
f 151//173 150//173 165//173 166//173
f 144//174 143//174 158//174 159//174
f 152//175 151//175 166//175 167//175
f 145//176 144//176 159//176 160//176
f 172//177 171//177 186//177 187//177
f 165//178 164//178 179//178 180//178
f 158//179 82//179 173//179
f 308//180 172//180 187//180
f 166//181 165//181 180//181 181//181
f 159//182 158//182 173//182 174//182
f 167//183 166//183 181//183 182//183
f 160//184 159//184 174//184 175//184
f 168//185 167//185 182//185 183//185
f 161//186 160//186 175//186 176//186
f 169//187 168//187 183//187 184//187
f 162//188 161//188 176//188 177//188
f 170//189 169//189 184//189 185//189
f 163//190 162//190 177//190 178//190
f 171//191 170//191 185//191 186//191
f 164//192 163//192 178//192 179//192
f 184//193 183//193 198//193 199//193
f 177//194 176//194 191//194 192//194
f 185//195 184//195 199//195 200//195
f 178//196 177//196 192//196 193//196
f 186//197 185//197 200//197 201//197
f 179//198 178//198 193//198 194//198
f 187//199 186//199 201//199 202//199
f 180//200 179//200 194//200 195//200
f 173//201 82//201 188//201
f 308//202 187//202 202//202
f 181//203 180//203 195//203 196//203
f 174//204 173//204 188//204 189//204
f 182//205 181//205 196//205 197//205
f 175//206 174//206 189//206 190//206
f 183//207 182//207 197//207 198//207
f 176//208 175//208 190//208 191//208
f 188//209 82//209 203//209
f 308//210 202//210 217//210
f 196//211 195//211 210//211 211//211
f 189//212 188//212 203//212 204//212
f 197//213 196//213 211//213 212//213
f 190//214 189//214 204//214 205//214
f 198//215 197//215 212//215 213//215
f 191//216 190//216 205//216 206//216
f 199//217 198//217 213//217 214//217
f 192//218 191//218 206//218 207//218
f 200//219 199//219 214//219 215//219
f 193//220 192//220 207//220 208//220
f 201//221 200//221 215//221 216//221
f 194//222 193//222 208//222 209//222
f 202//223 201//223 216//223 217//223
f 195//224 194//224 209//224 210//224
f 207//225 206//225 221//225 222//225
f 215//226 214//226 229//226 230//226
f 208//227 207//227 222//227 223//227
f 216//228 215//228 230//228 231//228
f 209//229 208//229 223//229 224//229
f 217//230 216//230 231//230 232//230
f 210//231 209//231 224//231 225//231
f 203//232 82//232 218//232
f 308//233 217//233 232//233
f 211//234 210//234 225//234 226//234
f 204//235 203//235 218//235 219//235
f 212//236 211//236 226//236 227//236
f 205//237 204//237 219//237 220//237
f 213//238 212//238 227//238 228//238
f 206//239 205//239 220//239 221//239
f 214//240 213//240 228//240 229//240
f 226//241 225//241 240//241 241//241
f 219//242 218//242 233//242 234//242
f 227//243 226//243 241//243 242//243
f 220//244 219//244 234//244 235//244
f 228//245 227//245 242//245 243//245
f 221//246 220//246 235//246 236//246
f 229//247 228//247 243//247 244//247
f 222//248 221//248 236//248 237//248
f 230//249 229//249 244//249 245//249
f 223//250 222//250 237//250 238//250
f 231//251 230//251 245//251 246//251
f 224//252 223//252 238//252 239//252
f 232//253 231//253 246//253 247//253
f 225//254 224//254 239//254 240//254
f 218//255 82//255 233//255
f 308//256 232//256 247//256
f 245//257 244//257 259//257 260//257
f 238//258 237//258 252//258 253//258
f 246//259 245//259 260//259 261//259
f 239//260 238//260 253//260 254//260
f 247//261 246//261 261//261 262//261
f 240//262 239//262 254//262 255//262
f 233//263 82//263 248//263
f 308//264 247//264 262//264
f 241//265 240//265 255//265 256//265
f 234//266 233//266 248//266 249//266
f 242//267 241//267 256//267 257//267
f 235//268 234//268 249//268 250//268
f 243//269 242//269 257//269 258//269
f 236//270 235//270 250//270 251//270
f 244//271 243//271 258//271 259//271
f 237//272 236//272 251//272 252//272
f 249//273 248//273 263//273 264//273
f 257//274 256//274 271//274 272//274
f 250//275 249//275 264//275 265//275
f 258//276 257//276 272//276 273//276
f 251//277 250//277 265//277 266//277
f 259//278 258//278 273//278 274//278
f 252//279 251//279 266//279 267//279
f 260//280 259//280 274//280 275//280
f 253//281 252//281 267//281 268//281
f 261//282 260//282 275//282 276//282
f 254//283 253//283 268//283 269//283
f 262//284 261//284 276//284 277//284
f 255//285 254//285 269//285 270//285
f 248//286 82//286 263//286
f 308//287 262//287 277//287
f 256//288 255//288 270//288 271//288
f 268//289 267//289 282//289 283//289
f 276//290 275//290 290//290 291//290
f 269//291 268//291 283//291 284//291
f 277//292 276//292 291//292 292//292
f 270//293 269//293 284//293 285//293
f 263//294 82//294 278//294
f 308//295 277//295 292//295
f 271//296 270//296 285//296 286//296
f 264//297 263//297 278//297 279//297
f 272//298 271//298 286//298 287//298
f 265//299 264//299 279//299 280//299
f 273//300 272//300 287//300 288//300
f 266//301 265//301 280//301 281//301
f 274//302 273//302 288//302 289//302
f 267//303 266//303 281//303 282//303
f 275//304 274//304 289//304 290//304
f 287//305 286//305 301//305 302//305
f 280//306 279//306 294//306 295//306
f 288//307 287//307 302//307 303//307
f 281//308 280//308 295//308 296//308
f 289//309 288//309 303//309 304//309
f 282//310 281//310 296//310 297//310
f 290//311 289//311 304//311 305//311
f 283//312 282//312 297//312 298//312
f 291//313 290//313 305//313 306//313
f 284//314 283//314 298//314 299//314
f 292//315 291//315 306//315 307//315
f 285//316 284//316 299//316 300//316
f 278//317 82//317 293//317
f 308//318 292//318 307//318
f 286//319 285//319 300//319 301//319
f 279//320 278//320 293//320 294//320
f 306//321 305//321 321//321 322//321
f 299//322 298//322 314//322 315//322
f 307//323 306//323 322//323 323//323
f 300//324 299//324 315//324 316//324
f 293//325 82//325 309//325
f 308//326 307//326 323//326
f 301//327 300//327 316//327 317//327
f 294//328 293//328 309//328 310//328
f 302//329 301//329 317//329 318//329
f 295//330 294//330 310//330 311//330
f 303//331 302//331 318//331 319//331
f 296//332 295//332 311//332 312//332
f 304//333 303//333 319//333 320//333
f 297//334 296//334 312//334 313//334
f 305//335 304//335 320//335 321//335
f 298//336 297//336 313//336 314//336
f 319//337 318//337 333//337 334//337
f 312//338 311//338 326//338 327//338
f 320//339 319//339 334//339 335//339
f 313//340 312//340 327//340 328//340
f 321//341 320//341 335//341 336//341
f 314//342 313//342 328//342 329//342
f 322//343 321//343 336//343 337//343
f 315//344 314//344 329//344 330//344
f 323//345 322//345 337//345 338//345
f 316//346 315//346 330//346 331//346
f 309//347 82//347 324//347
f 308//348 323//348 338//348
f 317//349 316//349 331//349 332//349
f 310//350 309//350 324//350 325//350
f 318//351 317//351 332//351 333//351
f 311//352 310//352 325//352 326//352
f 338//353 337//353 352//353 353//353
f 331//354 330//354 345//354 346//354
f 324//355 82//355 339//355
f 308//356 338//356 353//356
f 332//357 331//357 346//357 347//357
f 325//358 324//358 339//358 340//358
f 333//359 332//359 347//359 348//359
f 326//360 325//360 340//360 341//360
f 334//361 333//361 348//361 349//361
f 327//362 326//362 341//362 342//362
f 335//363 334//363 349//363 350//363
f 328//364 327//364 342//364 343//364
f 336//365 335//365 350//365 351//365
f 329//366 328//366 343//366 344//366
f 337//367 336//367 351//367 352//367
f 330//368 329//368 344//368 345//368
f 342//369 341//369 356//369 357//369
f 350//370 349//370 364//370 365//370
f 343//371 342//371 357//371 358//371
f 351//372 350//372 365//372 366//372
f 344//373 343//373 358//373 359//373
f 352//374 351//374 366//374 367//374
f 345//375 344//375 359//375 360//375
f 353//376 352//376 367//376 368//376
f 346//377 345//377 360//377 361//377
f 339//378 82//378 354//378
f 308//379 353//379 368//379
f 347//380 346//380 361//380 362//380
f 340//381 339//381 354//381 355//381
f 348//382 347//382 362//382 363//382
f 341//383 340//383 355//383 356//383
f 349//384 348//384 363//384 364//384
f 361//385 360//385 375//385 376//385
f 354//386 82//386 369//386
f 308//387 368//387 383//387
f 362//388 361//388 376//388 377//388
f 355//389 354//389 369//389 370//389
f 363//390 362//390 377//390 378//390
f 356//391 355//391 370//391 371//391
f 364//392 363//392 378//392 379//392
f 357//393 356//393 371//393 372//393
f 365//394 364//394 379//394 380//394
f 358//395 357//395 372//395 373//395
f 366//396 365//396 380//396 381//396
f 359//397 358//397 373//397 374//397
f 367//398 366//398 381//398 382//398
f 360//399 359//399 374//399 375//399
f 368//400 367//400 382//400 383//400
f 380//401 379//401 394//401 395//401
f 373//402 372//402 387//402 388//402
f 381//403 380//403 395//403 396//403
f 374//404 373//404 388//404 389//404
f 382//405 381//405 396//405 397//405
f 375//406 374//406 389//406 390//406
f 383//407 382//407 397//407 398//407
f 376//408 375//408 390//408 391//408
f 369//409 82//409 384//409
f 308//410 383//410 398//410
f 377//411 376//411 391//411 392//411
f 370//412 369//412 384//412 385//412
f 378//413 377//413 392//413 393//413
f 371//414 370//414 385//414 386//414
f 379//415 378//415 393//415 394//415
f 372//416 371//416 386//416 387//416
f 384//417 82//417 399//417
f 308//418 398//418 413//418
f 392//419 391//419 406//419 407//419
f 385//420 384//420 399//420 400//420
f 393//421 392//421 407//421 408//421
f 386//422 385//422 400//422 401//422
f 394//423 393//423 408//423 409//423
f 387//424 386//424 401//424 402//424
f 395//425 394//425 409//425 410//425
f 388//426 387//426 402//426 403//426
f 396//427 395//427 410//427 411//427
f 389//428 388//428 403//428 404//428
f 397//429 396//429 411//429 412//429
f 390//430 389//430 404//430 405//430
f 398//431 397//431 412//431 413//431
f 391//432 390//432 405//432 406//432
f 403//433 402//433 417//433 418//433
f 411//434 410//434 425//434 426//434
f 404//435 403//435 418//435 419//435
f 412//436 411//436 426//436 427//436
f 405//437 404//437 419//437 420//437
f 413//438 412//438 427//438 428//438
f 406//439 405//439 420//439 421//439
f 399//440 82//440 414//440
f 308//441 413//441 428//441
f 407//442 406//442 421//442 422//442
f 400//443 399//443 414//443 415//443
f 408//444 407//444 422//444 423//444
f 401//445 400//445 415//445 416//445
f 409//446 408//446 423//446 424//446
f 402//447 401//447 416//447 417//447
f 410//448 409//448 424//448 425//448
f 422//449 421//449 436//449 437//449
f 415//450 414//450 429//450 430//450
f 423//451 422//451 437//451 438//451
f 416//452 415//452 430//452 431//452
f 424//453 423//453 438//453 439//453
f 417//454 416//454 431//454 432//454
f 425//455 424//455 439//455 440//455
f 418//456 417//456 432//456 433//456
f 426//457 425//457 440//457 441//457
f 419//458 418//458 433//458 434//458
f 427//459 426//459 441//459 442//459
f 420//460 419//460 434//460 435//460
f 428//461 427//461 442//461 443//461
f 421//462 420//462 435//462 436//462
f 414//463 82//463 429//463
f 308//464 428//464 443//464
f 441//465 440//465 455//465 456//465
f 434//466 433//466 448//466 449//466
f 442//467 441//467 456//467 457//467
f 435//468 434//468 449//468 450//468
f 443//469 442//469 457//469 458//469
f 436//470 435//470 450//470 451//470
f 429//471 82//471 444//471
f 308//472 443//472 458//472
f 437//473 436//473 451//473 452//473
f 430//474 429//474 444//474 445//474
f 438//475 437//475 452//475 453//475
f 431//476 430//476 445//476 446//476
f 439//477 438//477 453//477 454//477
f 432//478 431//478 446//478 447//478
f 440//479 439//479 454//479 455//479
f 433//480 432//480 447//480 448//480
f 453//481 452//481 467//481 468//481
f 446//482 445//482 460//482 461//482
f 454//483 453//483 468//483 469//483
f 447//484 446//484 461//484 462//484
f 455//485 454//485 469//485 470//485
f 448//486 447//486 462//486 463//486
f 456//487 455//487 470//487 471//487
f 449//488 448//488 463//488 464//488
f 457//489 456//489 471//489 472//489
f 450//490 449//490 464//490 465//490
f 458//491 457//491 472//491 473//491
f 451//492 450//492 465//492 466//492
f 444//493 82//493 459//493
f 308//494 458//494 473//494
f 452//495 451//495 466//495 467//495
f 445//496 444//496 459//496 460//496
f 472//497 471//497 480//497 481//497
f 465//498 464//498 477//498 3//498
f 473//499 472//499 481//499 482//499
f 466//500 465//500 3//500 4//500
f 459//501 82//501 474//501
f 308//502 473//502 482//502
f 467//503 466//503 4//503 5//503
f 460//504 459//504 474//504 475//504
f 468//505 467//505 5//505 478//505
f 461//506 460//506 475//506 1//506
f 469//507 468//507 478//507 6//507
f 462//508 461//508 1//508 476//508
f 470//509 469//509 6//509 479//509
f 463//510 462//510 476//510 2//510
f 471//511 470//511 479//511 480//511
f 464//512 463//512 2//512 477//512
