# Blender 4.4.3
# www.blender.org
o Torus.001
v 1.490000 0.000000 0.000000
v 1.466997 0.000000 0.145238
v 1.400238 0.000000 0.276259
v 1.296259 0.000000 0.380238
v 1.165238 0.000000 0.446997
v 1.020000 0.000000 0.470000
v 0.874762 0.000000 0.446997
v 0.743741 0.000000 0.380238
v 0.639762 0.000000 0.276259
v 0.573003 0.000000 0.145238
v 0.550000 0.000000 0.000000
v 0.573003 0.000000 -0.145238
v 0.639762 0.000000 -0.276259
v 0.743741 0.000000 -0.380238
v 0.874762 0.000000 -0.446997
v 1.020000 0.000000 -0.470000
v 1.165238 0.000000 -0.446997
v 1.296259 0.000000 -0.380238
v 1.400238 0.000000 -0.276259
v 1.466997 0.000000 -0.145238
v 1.376581 0.570198 0.000000
v 1.355328 0.561395 0.145238
v 1.293651 0.535848 0.276259
v 1.197587 0.496057 0.380238
v 1.076540 0.445917 0.446997
v 0.942357 0.390337 0.470000
v 0.808175 0.334757 0.446997
v 0.687127 0.284617 0.380238
v 0.591063 0.244826 0.276259
v 0.529386 0.219279 0.145238
v 0.508134 0.210476 0.000000
v 0.529386 0.219279 -0.145238
v 0.591063 0.244826 -0.276259
v 0.687127 0.284617 -0.380238
v 0.808175 0.334757 -0.446997
v 0.942357 0.390337 -0.470000
v 1.076540 0.445917 -0.446997
v 1.197587 0.496057 -0.380238
v 1.293651 0.535848 -0.276259
v 1.355328 0.561395 -0.145238
v 1.053589 1.053589 0.000000
v 1.037323 1.037323 0.145238
v 0.990118 0.990118 0.276259
v 0.916593 0.916594 0.380238
v 0.823948 0.823948 0.446997
v 0.721249 0.721249 0.470000
v 0.618550 0.618550 0.446997
v 0.525904 0.525904 0.380238
v 0.452380 0.452380 0.276259
v 0.405175 0.405175 0.145238
v 0.388909 0.388909 0.000000
v 0.405175 0.405175 -0.145238
v 0.452380 0.452380 -0.276259
v 0.525904 0.525904 -0.380238
v 0.618550 0.618550 -0.446997
v 0.721249 0.721249 -0.470000
v 0.823948 0.823948 -0.446997
v 0.916593 0.916594 -0.380238
v 0.990118 0.990118 -0.276259
v 1.037323 1.037323 -0.145238
v 0.570199 1.376580 0.000000
v 0.561396 1.355328 0.145238
v 0.535848 1.293651 0.276259
v 0.496057 1.197587 0.380238
v 0.445918 1.076540 0.446997
v 0.390337 0.942357 0.470000
v 0.334757 0.808175 0.446997
v 0.284618 0.687127 0.380238
v 0.244826 0.591063 0.276259
v 0.219279 0.529386 0.145238
v 0.210476 0.508134 0.000000
v 0.219279 0.529386 -0.145238
v 0.244826 0.591063 -0.276259
v 0.284618 0.687127 -0.380238
v 0.334757 0.808175 -0.446997
v 0.390337 0.942357 -0.470000
v 0.445918 1.076540 -0.446997
v 0.496057 1.197587 -0.380238
v 0.535848 1.293651 -0.276259
v 0.561396 1.355328 -0.145238
v 0.000000 1.490000 0.000000
v 0.000000 1.466997 0.145238
v 0.000000 1.400238 0.276259
v 0.000000 1.296259 0.380238
v 0.000000 1.165238 0.446997
v 0.000000 1.020000 0.470000
v 0.000000 0.874762 0.446997
v 0.000000 0.743741 0.380238
v 0.000000 0.639762 0.276259
v 0.000000 0.573003 0.145238
v 0.000000 0.550000 0.000000
v 0.000000 0.573003 -0.145238
v 0.000000 0.639762 -0.276259
v 0.000000 0.743741 -0.380238
v 0.000000 0.874762 -0.446997
v 0.000000 1.020000 -0.470000
v 0.000000 1.165238 -0.446997
v 0.000000 1.296259 -0.380238
v 0.000000 1.400238 -0.276259
v 0.000000 1.466997 -0.145238
v -0.570198 1.376580 0.000000
v -0.561395 1.355328 0.145238
v -0.535848 1.293651 0.276259
v -0.496057 1.197587 0.380238
v -0.445917 1.076540 0.446997
v -0.390337 0.942357 0.470000
v -0.334757 0.808175 0.446997
v -0.284617 0.687127 0.380238
v -0.244826 0.591063 0.276259
v -0.219279 0.529386 0.145238
v -0.210476 0.508134 0.000000
v -0.219279 0.529386 -0.145238
v -0.244826 0.591063 -0.276259
v -0.284617 0.687127 -0.380238
v -0.334757 0.808175 -0.446997
v -0.390337 0.942357 -0.470000
v -0.445917 1.076540 -0.446997
v -0.496057 1.197587 -0.380238
v -0.535848 1.293651 -0.276259
v -0.561395 1.355328 -0.145238
v -1.053589 1.053589 0.000000
v -1.037323 1.037323 0.145238
v -0.990118 0.990117 0.276259
v -0.916594 0.916593 0.380238
v -0.823948 0.823947 0.446997
v -0.721249 0.721249 0.470000
v -0.618550 0.618550 0.446997
v -0.525904 0.525904 0.380238
v -0.452380 0.452380 0.276259
v -0.405175 0.405174 0.145238
v -0.388909 0.388909 0.000000
v -0.405175 0.405174 -0.145238
v -0.452380 0.452380 -0.276259
v -0.525904 0.525904 -0.380238
v -0.618550 0.618550 -0.446997
v -0.721249 0.721249 -0.470000
v -0.823948 0.823947 -0.446997
v -0.916594 0.916593 -0.380238
v -0.990118 0.990117 -0.276259
v -1.037323 1.037323 -0.145238
v -1.376580 0.570198 0.000000
v -1.355328 0.561395 0.145238
v -1.293651 0.535848 0.276259
v -1.197587 0.496057 0.380238
v -1.076540 0.445917 0.446997
v -0.942357 0.390337 0.470000
v -0.808175 0.334757 0.446997
v -0.687127 0.284617 0.380238
v -0.591063 0.244826 0.276259
v -0.529386 0.219279 0.145238
v -0.508134 0.210476 0.000000
v -0.529386 0.219279 -0.145238
v -0.591063 0.244826 -0.276259
v -0.687127 0.284617 -0.380238
v -0.808175 0.334757 -0.446997
v -0.942357 0.390337 -0.470000
v -1.076540 0.445917 -0.446997
v -1.197587 0.496057 -0.380238
v -1.293651 0.535848 -0.276259
v -1.355328 0.561395 -0.145238
v -1.490000 0.000000 0.000000
v -1.466997 0.000000 0.145238
v -1.400238 0.000000 0.276259
v -1.296259 0.000000 0.380238
v -1.165238 0.000000 0.446997
v -1.020000 0.000000 0.470000
v -0.874762 0.000000 0.446997
v -0.743741 0.000000 0.380238
v -0.639762 0.000000 0.276259
v -0.573003 0.000000 0.145238
v -0.550000 0.000000 0.000000
v -0.573003 0.000000 -0.145238
v -0.639762 0.000000 -0.276259
v -0.743741 0.000000 -0.380238
v -0.874762 0.000000 -0.446997
v -1.020000 0.000000 -0.470000
v -1.165238 0.000000 -0.446997
v -1.296259 0.000000 -0.380238
v -1.400238 0.000000 -0.276259
v -1.466997 0.000000 -0.145238
v -1.376581 -0.570198 0.000000
v -1.355328 -0.561395 0.145238
v -1.293651 -0.535847 0.276259
v -1.197587 -0.496056 0.380238
v -1.076540 -0.445917 0.446997
v -0.942357 -0.390337 0.470000
v -0.808175 -0.334757 0.446997
v -0.687127 -0.284617 0.380238
v -0.591063 -0.244826 0.276259
v -0.529386 -0.219279 0.145238
v -0.508134 -0.210476 0.000000
v -0.529386 -0.219279 -0.145238
v -0.591063 -0.244826 -0.276259
v -0.687127 -0.284617 -0.380238
v -0.808175 -0.334757 -0.446997
v -0.942357 -0.390337 -0.470000
v -1.076540 -0.445917 -0.446997
v -1.197587 -0.496056 -0.380238
v -1.293651 -0.535847 -0.276259
v -1.355328 -0.561395 -0.145238
v -1.053589 -1.053589 0.000000
v -1.037323 -1.037323 0.145238
v -0.990118 -0.990117 0.276259
v -0.916594 -0.916593 0.380238
v -0.823948 -0.823947 0.446997
v -0.721249 -0.721249 0.470000
v -0.618550 -0.618550 0.446997
v -0.525904 -0.525904 0.380238
v -0.452380 -0.452380 0.276259
v -0.405175 -0.405174 0.145238
v -0.388909 -0.388909 0.000000
v -0.405175 -0.405174 -0.145238
v -0.452380 -0.452380 -0.276259
v -0.525904 -0.525904 -0.380238
v -0.618550 -0.618550 -0.446997
v -0.721249 -0.721249 -0.470000
v -0.823948 -0.823947 -0.446997
v -0.916594 -0.916593 -0.380238
v -0.990118 -0.990117 -0.276259
v -1.037323 -1.037323 -0.145238
v -0.570198 -1.376580 0.000000
v -0.561395 -1.355328 0.145238
v -0.535848 -1.293651 0.276259
v -0.496057 -1.197587 0.380238
v -0.445917 -1.076540 0.446997
v -0.390337 -0.942357 0.470000
v -0.334757 -0.808175 0.446997
v -0.284617 -0.687127 0.380238
v -0.244826 -0.591063 0.276259
v -0.219279 -0.529386 0.145238
v -0.210476 -0.508134 0.000000
v -0.219279 -0.529386 -0.145238
v -0.244826 -0.591063 -0.276259
v -0.284617 -0.687127 -0.380238
v -0.334757 -0.808175 -0.446997
v -0.390337 -0.942357 -0.470000
v -0.445917 -1.076540 -0.446997
v -0.496057 -1.197587 -0.380238
v -0.535848 -1.293651 -0.276259
v -0.561395 -1.355328 -0.145238
v 0.000000 -1.490000 0.000000
v 0.000000 -1.466997 0.145238
v 0.000000 -1.400238 0.276259
v 0.000000 -1.296259 0.380238
v 0.000000 -1.165238 0.446997
v 0.000000 -1.020000 0.470000
v 0.000000 -0.874762 0.446997
v 0.000000 -0.743741 0.380238
v 0.000000 -0.639762 0.276259
v 0.000000 -0.573003 0.145238
v 0.000000 -0.550000 0.000000
v 0.000000 -0.573003 -0.145238
v 0.000000 -0.639762 -0.276259
v 0.000000 -0.743741 -0.380238
v 0.000000 -0.874762 -0.446997
v 0.000000 -1.020000 -0.470000
v 0.000000 -1.165238 -0.446997
v 0.000000 -1.296259 -0.380238
v 0.000000 -1.400238 -0.276259
v 0.000000 -1.466997 -0.145238
v 0.570199 -1.376580 0.000000
v 0.561396 -1.355328 0.145238
v 0.535848 -1.293651 0.276259
v 0.496057 -1.197587 0.380238
v 0.445918 -1.076540 0.446997
v 0.390337 -0.942357 0.470000
v 0.334757 -0.808175 0.446997
v 0.284618 -0.687127 0.380238
v 0.244826 -0.591063 0.276259
v 0.219279 -0.529386 0.145238
v 0.210476 -0.508134 0.000000
v 0.219279 -0.529386 -0.145238
v 0.244826 -0.591063 -0.276259
v 0.284618 -0.687127 -0.380238
v 0.334757 -0.808175 -0.446997
v 0.390337 -0.942357 -0.470000
v 0.445918 -1.076540 -0.446997
v 0.496057 -1.197587 -0.380238
v 0.535848 -1.293651 -0.276259
v 0.561396 -1.355328 -0.145238
v 1.053589 -1.053590 0.000000
v 1.037323 -1.037324 0.145238
v 0.990117 -0.990118 0.276259
v 0.916593 -0.916594 0.380238
v 0.823947 -0.823948 0.446997
v 0.721249 -0.721249 0.470000
v 0.618550 -0.618550 0.446997
v 0.525904 -0.525905 0.380238
v 0.452380 -0.452380 0.276259
v 0.405174 -0.405175 0.145238
v 0.388909 -0.388909 0.000000
v 0.405174 -0.405175 -0.145238
v 0.452380 -0.452380 -0.276259
v 0.525904 -0.525905 -0.380238
v 0.618550 -0.618550 -0.446997
v 0.721249 -0.721249 -0.470000
v 0.823947 -0.823948 -0.446997
v 0.916593 -0.916594 -0.380238
v 0.990117 -0.990118 -0.276259
v 1.037323 -1.037324 -0.145238
v 1.376580 -0.570199 0.000000
v 1.355328 -0.561396 0.145238
v 1.293651 -0.535848 0.276259
v 1.197587 -0.496057 0.380238
v 1.076539 -0.445918 0.446997
v 0.942357 -0.390337 0.470000
v 0.808175 -0.334757 0.446997
v 0.687127 -0.284618 0.380238
v 0.591063 -0.244827 0.276259
v 0.529386 -0.219279 0.145238
v 0.508134 -0.210476 0.000000
v 0.529386 -0.219279 -0.145238
v 0.591063 -0.244827 -0.276259
v 0.687127 -0.284618 -0.380238
v 0.808175 -0.334757 -0.446997
v 0.942357 -0.390337 -0.470000
v 1.076539 -0.445918 -0.446997
v 1.197587 -0.496057 -0.380238
v 1.293651 -0.535848 -0.276259
v 1.355328 -0.561396 -0.145238
vn 0.9692 0.1928 0.1535
vn 0.8773 0.1745 0.4470
vn 0.7002 0.1393 0.7002
vn 0.4522 0.0899 0.8874
vn 0.1564 0.0311 0.9872
vn -0.1564 -0.0311 0.9872
vn -0.4522 -0.0899 0.8874
vn -0.7002 -0.1393 0.7002
vn -0.8773 -0.1745 0.4470
vn -0.9692 -0.1928 0.1535
vn -0.9692 -0.1928 -0.1535
vn -0.8773 -0.1745 -0.4470
vn -0.7002 -0.1393 -0.7002
vn -0.4522 -0.0899 -0.8874
vn -0.1564 -0.0311 -0.9872
vn 0.1564 0.0311 -0.9872
vn 0.4522 0.0899 -0.8874
vn 0.7002 0.1393 -0.7002
vn 0.8773 0.1745 -0.4470
vn 0.9692 0.1928 -0.1535
vn 0.8216 0.5490 0.1535
vn 0.7438 0.4970 0.4470
vn 0.5936 0.3966 0.7002
vn 0.3833 0.2561 0.8874
vn 0.1326 0.0886 0.9872
vn -0.1326 -0.0886 0.9872
vn -0.3833 -0.2561 0.8874
vn -0.5936 -0.3966 0.7002
vn -0.7438 -0.4970 0.4470
vn -0.8216 -0.5490 0.1535
vn -0.8216 -0.5490 -0.1535
vn -0.7438 -0.4970 -0.4470
vn -0.5936 -0.3966 -0.7002
vn -0.3833 -0.2561 -0.8874
vn -0.1326 -0.0886 -0.9872
vn 0.1326 0.0886 -0.9872
vn 0.3833 0.2561 -0.8874
vn 0.5936 0.3966 -0.7002
vn 0.7438 0.4970 -0.4470
vn 0.8216 0.5490 -0.1535
vn 0.5490 0.8216 0.1535
vn 0.4970 0.7438 0.4470
vn 0.3966 0.5936 0.7002
vn 0.2561 0.3833 0.8874
vn 0.0886 0.1326 0.9872
vn -0.0886 -0.1326 0.9872
vn -0.2561 -0.3833 0.8874
vn -0.3966 -0.5936 0.7002
vn -0.4970 -0.7438 0.4470
vn -0.5490 -0.8216 0.1535
vn -0.5490 -0.8216 -0.1535
vn -0.4970 -0.7438 -0.4470
vn -0.3966 -0.5936 -0.7002
vn -0.2561 -0.3833 -0.8874
vn -0.0886 -0.1326 -0.9872
vn 0.0886 0.1326 -0.9872
vn 0.2561 0.3833 -0.8874
vn 0.3966 0.5936 -0.7002
vn 0.4970 0.7438 -0.4470
vn 0.5490 0.8216 -0.1535
vn 0.1928 0.9692 0.1535
vn 0.1745 0.8773 0.4470
vn 0.1393 0.7002 0.7002
vn 0.0899 0.4522 0.8874
vn 0.0311 0.1564 0.9872
vn -0.0311 -0.1564 0.9872
vn -0.0899 -0.4522 0.8874
vn -0.1393 -0.7002 0.7002
vn -0.1745 -0.8773 0.4470
vn -0.1928 -0.9692 0.1535
vn -0.1928 -0.9692 -0.1535
vn -0.1745 -0.8773 -0.4470
vn -0.1393 -0.7002 -0.7002
vn -0.0899 -0.4522 -0.8874
vn -0.0311 -0.1564 -0.9872
vn 0.0311 0.1564 -0.9872
vn 0.0899 0.4522 -0.8874
vn 0.1393 0.7002 -0.7002
vn 0.1745 0.8773 -0.4470
vn 0.1928 0.9692 -0.1535
vn -0.1928 0.9692 0.1535
vn -0.1745 0.8773 0.4470
vn -0.1393 0.7002 0.7002
vn -0.0899 0.4522 0.8874
vn -0.0311 0.1564 0.9872
vn 0.0311 -0.1564 0.9872
vn 0.0899 -0.4522 0.8874
vn 0.1393 -0.7002 0.7002
vn 0.1745 -0.8773 0.4470
vn 0.1928 -0.9692 0.1535
vn 0.1928 -0.9692 -0.1535
vn 0.1745 -0.8773 -0.4470
vn 0.1393 -0.7002 -0.7002
vn 0.0899 -0.4522 -0.8874
vn 0.0311 -0.1564 -0.9872
vn -0.0311 0.1564 -0.9872
vn -0.0899 0.4522 -0.8874
vn -0.1393 0.7002 -0.7002
vn -0.1745 0.8773 -0.4470
vn -0.1928 0.9692 -0.1535
vn -0.5490 0.8216 0.1535
vn -0.4970 0.7438 0.4470
vn -0.3966 0.5936 0.7002
vn -0.2561 0.3833 0.8874
vn -0.0886 0.1326 0.9872
vn 0.0886 -0.1326 0.9872
vn 0.2561 -0.3833 0.8874
vn 0.3966 -0.5936 0.7002
vn 0.4970 -0.7438 0.4470
vn 0.5490 -0.8216 0.1535
vn 0.5490 -0.8216 -0.1535
vn 0.4970 -0.7438 -0.4470
vn 0.3966 -0.5936 -0.7002
vn 0.2561 -0.3833 -0.8874
vn 0.0886 -0.1326 -0.9872
vn -0.0886 0.1326 -0.9872
vn -0.2561 0.3833 -0.8874
vn -0.3966 0.5936 -0.7002
vn -0.4970 0.7438 -0.4470
vn -0.5490 0.8216 -0.1535
vn -0.8216 0.5490 0.1535
vn -0.7438 0.4970 0.4470
vn -0.5936 0.3966 0.7002
vn -0.3833 0.2561 0.8874
vn -0.1326 0.0886 0.9872
vn 0.1326 -0.0886 0.9872
vn 0.3833 -0.2561 0.8874
vn 0.5936 -0.3966 0.7002
vn 0.7438 -0.4970 0.4470
vn 0.8216 -0.5490 0.1535
vn 0.8216 -0.5490 -0.1535
vn 0.7438 -0.4970 -0.4470
vn 0.5936 -0.3966 -0.7002
vn 0.3833 -0.2561 -0.8874
vn 0.1326 -0.0886 -0.9872
vn -0.1326 0.0886 -0.9872
vn -0.3833 0.2561 -0.8874
vn -0.5936 0.3966 -0.7002
vn -0.7438 0.4970 -0.4470
vn -0.8216 0.5490 -0.1535
vn -0.9692 0.1928 0.1535
vn -0.8773 0.1745 0.4470
vn -0.7002 0.1393 0.7002
vn -0.4522 0.0899 0.8874
vn -0.1564 0.0311 0.9872
vn 0.1564 -0.0311 0.9872
vn 0.4522 -0.0899 0.8874
vn 0.7002 -0.1393 0.7002
vn 0.8773 -0.1745 0.4470
vn 0.9692 -0.1928 0.1535
vn 0.9692 -0.1928 -0.1535
vn 0.8773 -0.1745 -0.4470
vn 0.7002 -0.1393 -0.7002
vn 0.4522 -0.0899 -0.8874
vn 0.1564 -0.0311 -0.9872
vn -0.1564 0.0311 -0.9872
vn -0.4522 0.0899 -0.8874
vn -0.7002 0.1393 -0.7002
vn -0.8773 0.1745 -0.4470
vn -0.9692 0.1928 -0.1535
s 0
f 1//1 21//1 22//1 2//1
f 2//2 22//2 23//2 3//2
f 3//3 23//3 24//3 4//3
f 4//4 24//4 25//4 5//4
f 5//5 25//5 26//5 6//5
f 6//6 26//6 27//6 7//6
f 7//7 27//7 28//7 8//7
f 8//8 28//8 29//8 9//8
f 9//9 29//9 30//9 10//9
f 10//10 30//10 31//10 11//10
f 11//11 31//11 32//11 12//11
f 12//12 32//12 33//12 13//12
f 13//13 33//13 34//13 14//13
f 14//14 34//14 35//14 15//14
f 15//15 35//15 36//15 16//15
f 16//16 36//16 37//16 17//16
f 17//17 37//17 38//17 18//17
f 18//18 38//18 39//18 19//18
f 19//19 39//19 40//19 20//19
f 20//20 40//20 21//20 1//20
f 21//21 41//21 42//21 22//21
f 22//22 42//22 43//22 23//22
f 23//23 43//23 44//23 24//23
f 24//24 44//24 45//24 25//24
f 25//25 45//25 46//25 26//25
f 26//26 46//26 47//26 27//26
f 27//27 47//27 48//27 28//27
f 28//28 48//28 49//28 29//28
f 29//29 49//29 50//29 30//29
f 30//30 50//30 51//30 31//30
f 31//31 51//31 52//31 32//31
f 32//32 52//32 53//32 33//32
f 33//33 53//33 54//33 34//33
f 34//34 54//34 55//34 35//34
f 35//35 55//35 56//35 36//35
f 36//36 56//36 57//36 37//36
f 37//37 57//37 58//37 38//37
f 38//38 58//38 59//38 39//38
f 39//39 59//39 60//39 40//39
f 40//40 60//40 41//40 21//40
f 41//41 61//41 62//41 42//41
f 42//42 62//42 63//42 43//42
f 43//43 63//43 64//43 44//43
f 44//44 64//44 65//44 45//44
f 45//45 65//45 66//45 46//45
f 46//46 66//46 67//46 47//46
f 47//47 67//47 68//47 48//47
f 48//48 68//48 69//48 49//48
f 49//49 69//49 70//49 50//49
f 50//50 70//50 71//50 51//50
f 51//51 71//51 72//51 52//51
f 52//52 72//52 73//52 53//52
f 53//53 73//53 74//53 54//53
f 54//54 74//54 75//54 55//54
f 55//55 75//55 76//55 56//55
f 56//56 76//56 77//56 57//56
f 57//57 77//57 78//57 58//57
f 58//58 78//58 79//58 59//58
f 59//59 79//59 80//59 60//59
f 60//60 80//60 61//60 41//60
f 61//61 81//61 82//61 62//61
f 62//62 82//62 83//62 63//62
f 63//63 83//63 84//63 64//63
f 64//64 84//64 85//64 65//64
f 65//65 85//65 86//65 66//65
f 66//66 86//66 87//66 67//66
f 67//67 87//67 88//67 68//67
f 68//68 88//68 89//68 69//68
f 69//69 89//69 90//69 70//69
f 70//70 90//70 91//70 71//70
f 71//71 91//71 92//71 72//71
f 72//72 92//72 93//72 73//72
f 73//73 93//73 94//73 74//73
f 74//74 94//74 95//74 75//74
f 75//75 95//75 96//75 76//75
f 76//76 96//76 97//76 77//76
f 77//77 97//77 98//77 78//77
f 78//78 98//78 99//78 79//78
f 79//79 99//79 100//79 80//79
f 80//80 100//80 81//80 61//80
f 81//81 101//81 102//81 82//81
f 82//82 102//82 103//82 83//82
f 83//83 103//83 104//83 84//83
f 84//84 104//84 105//84 85//84
f 85//85 105//85 106//85 86//85
f 86//86 106//86 107//86 87//86
f 87//87 107//87 108//87 88//87
f 88//88 108//88 109//88 89//88
f 89//89 109//89 110//89 90//89
f 90//90 110//90 111//90 91//90
f 91//91 111//91 112//91 92//91
f 92//92 112//92 113//92 93//92
f 93//93 113//93 114//93 94//93
f 94//94 114//94 115//94 95//94
f 95//95 115//95 116//95 96//95
f 96//96 116//96 117//96 97//96
f 97//97 117//97 118//97 98//97
f 98//98 118//98 119//98 99//98
f 99//99 119//99 120//99 100//99
f 100//100 120//100 101//100 81//100
f 101//101 121//101 122//101 102//101
f 102//102 122//102 123//102 103//102
f 103//103 123//103 124//103 104//103
f 104//104 124//104 125//104 105//104
f 105//105 125//105 126//105 106//105
f 106//106 126//106 127//106 107//106
f 107//107 127//107 128//107 108//107
f 108//108 128//108 129//108 109//108
f 109//109 129//109 130//109 110//109
f 110//110 130//110 131//110 111//110
f 111//111 131//111 132//111 112//111
f 112//112 132//112 133//112 113//112
f 113//113 133//113 134//113 114//113
f 114//114 134//114 135//114 115//114
f 115//115 135//115 136//115 116//115
f 116//116 136//116 137//116 117//116
f 117//117 137//117 138//117 118//117
f 118//118 138//118 139//118 119//118
f 119//119 139//119 140//119 120//119
f 120//120 140//120 121//120 101//120
f 121//121 141//121 142//121 122//121
f 122//122 142//122 143//122 123//122
f 123//123 143//123 144//123 124//123
f 124//124 144//124 145//124 125//124
f 125//125 145//125 146//125 126//125
f 126//126 146//126 147//126 127//126
f 127//127 147//127 148//127 128//127
f 128//128 148//128 149//128 129//128
f 129//129 149//129 150//129 130//129
f 130//130 150//130 151//130 131//130
f 131//131 151//131 152//131 132//131
f 132//132 152//132 153//132 133//132
f 133//133 153//133 154//133 134//133
f 134//134 154//134 155//134 135//134
f 135//135 155//135 156//135 136//135
f 136//136 156//136 157//136 137//136
f 137//137 157//137 158//137 138//137
f 138//138 158//138 159//138 139//138
f 139//139 159//139 160//139 140//139
f 140//140 160//140 141//140 121//140
f 141//141 161//141 162//141 142//141
f 142//142 162//142 163//142 143//142
f 143//143 163//143 164//143 144//143
f 144//144 164//144 165//144 145//144
f 145//145 165//145 166//145 146//145
f 146//146 166//146 167//146 147//146
f 147//147 167//147 168//147 148//147
f 148//148 168//148 169//148 149//148
f 149//149 169//149 170//149 150//149
f 150//150 170//150 171//150 151//150
f 151//151 171//151 172//151 152//151
f 152//152 172//152 173//152 153//152
f 153//153 173//153 174//153 154//153
f 154//154 174//154 175//154 155//154
f 155//155 175//155 176//155 156//155
f 156//156 176//156 177//156 157//156
f 157//157 177//157 178//157 158//157
f 158//158 178//158 179//158 159//158
f 159//159 179//159 180//159 160//159
f 160//160 180//160 161//160 141//160
f 161//10 181//10 182//10 162//10
f 162//9 182//9 183//9 163//9
f 163//8 183//8 184//8 164//8
f 164//7 184//7 185//7 165//7
f 165//6 185//6 186//6 166//6
f 166//5 186//5 187//5 167//5
f 167//4 187//4 188//4 168//4
f 168//3 188//3 189//3 169//3
f 169//2 189//2 190//2 170//2
f 170//1 190//1 191//1 171//1
f 171//20 191//20 192//20 172//20
f 172//19 192//19 193//19 173//19
f 173//18 193//18 194//18 174//18
f 174//17 194//17 195//17 175//17
f 175//16 195//16 196//16 176//16
f 176//15 196//15 197//15 177//15
f 177//14 197//14 198//14 178//14
f 178//13 198//13 199//13 179//13
f 179//12 199//12 200//12 180//12
f 180//11 200//11 181//11 161//11
f 181//30 201//30 202//30 182//30
f 182//29 202//29 203//29 183//29
f 183//28 203//28 204//28 184//28
f 184//27 204//27 205//27 185//27
f 185//26 205//26 206//26 186//26
f 186//25 206//25 207//25 187//25
f 187//24 207//24 208//24 188//24
f 188//23 208//23 209//23 189//23
f 189//22 209//22 210//22 190//22
f 190//21 210//21 211//21 191//21
f 191//40 211//40 212//40 192//40
f 192//39 212//39 213//39 193//39
f 193//38 213//38 214//38 194//38
f 194//37 214//37 215//37 195//37
f 195//36 215//36 216//36 196//36
f 196//35 216//35 217//35 197//35
f 197//34 217//34 218//34 198//34
f 198//33 218//33 219//33 199//33
f 199//32 219//32 220//32 200//32
f 200//31 220//31 201//31 181//31
f 201//50 221//50 222//50 202//50
f 202//49 222//49 223//49 203//49
f 203//48 223//48 224//48 204//48
f 204//47 224//47 225//47 205//47
f 205//46 225//46 226//46 206//46
f 206//45 226//45 227//45 207//45
f 207//44 227//44 228//44 208//44
f 208//43 228//43 229//43 209//43
f 209//42 229//42 230//42 210//42
f 210//41 230//41 231//41 211//41
f 211//60 231//60 232//60 212//60
f 212//59 232//59 233//59 213//59
f 213//58 233//58 234//58 214//58
f 214//57 234//57 235//57 215//57
f 215//56 235//56 236//56 216//56
f 216//55 236//55 237//55 217//55
f 217//54 237//54 238//54 218//54
f 218//53 238//53 239//53 219//53
f 219//52 239//52 240//52 220//52
f 220//51 240//51 221//51 201//51
f 221//70 241//70 242//70 222//70
f 222//69 242//69 243//69 223//69
f 223//68 243//68 244//68 224//68
f 224//67 244//67 245//67 225//67
f 225//66 245//66 246//66 226//66
f 226//65 246//65 247//65 227//65
f 227//64 247//64 248//64 228//64
f 228//63 248//63 249//63 229//63
f 229//62 249//62 250//62 230//62
f 230//61 250//61 251//61 231//61
f 231//80 251//80 252//80 232//80
f 232//79 252//79 253//79 233//79
f 233//78 253//78 254//78 234//78
f 234//77 254//77 255//77 235//77
f 235//76 255//76 256//76 236//76
f 236//75 256//75 257//75 237//75
f 237//74 257//74 258//74 238//74
f 238//73 258//73 259//73 239//73
f 239//72 259//72 260//72 240//72
f 240//71 260//71 241//71 221//71
f 241//90 261//90 262//90 242//90
f 242//89 262//89 263//89 243//89
f 243//88 263//88 264//88 244//88
f 244//87 264//87 265//87 245//87
f 245//86 265//86 266//86 246//86
f 246//85 266//85 267//85 247//85
f 247//84 267//84 268//84 248//84
f 248//83 268//83 269//83 249//83
f 249//82 269//82 270//82 250//82
f 250//81 270//81 271//81 251//81
f 251//100 271//100 272//100 252//100
f 252//99 272//99 273//99 253//99
f 253//98 273//98 274//98 254//98
f 254//97 274//97 275//97 255//97
f 255//96 275//96 276//96 256//96
f 256//95 276//95 277//95 257//95
f 257//94 277//94 278//94 258//94
f 258//93 278//93 279//93 259//93
f 259//92 279//92 280//92 260//92
f 260//91 280//91 261//91 241//91
f 261//110 281//110 282//110 262//110
f 262//109 282//109 283//109 263//109
f 263//108 283//108 284//108 264//108
f 264//107 284//107 285//107 265//107
f 265//106 285//106 286//106 266//106
f 266//105 286//105 287//105 267//105
f 267//104 287//104 288//104 268//104
f 268//103 288//103 289//103 269//103
f 269//102 289//102 290//102 270//102
f 270//101 290//101 291//101 271//101
f 271//120 291//120 292//120 272//120
f 272//119 292//119 293//119 273//119
f 273//118 293//118 294//118 274//118
f 274//117 294//117 295//117 275//117
f 275//116 295//116 296//116 276//116
f 276//115 296//115 297//115 277//115
f 277//114 297//114 298//114 278//114
f 278//113 298//113 299//113 279//113
f 279//112 299//112 300//112 280//112
f 280//111 300//111 281//111 261//111
f 281//130 301//130 302//130 282//130
f 282//129 302//129 303//129 283//129
f 283//128 303//128 304//128 284//128
f 284//127 304//127 305//127 285//127
f 285//126 305//126 306//126 286//126
f 286//125 306//125 307//125 287//125
f 287//124 307//124 308//124 288//124
f 288//123 308//123 309//123 289//123
f 289//122 309//122 310//122 290//122
f 290//121 310//121 311//121 291//121
f 291//140 311//140 312//140 292//140
f 292//139 312//139 313//139 293//139
f 293//138 313//138 314//138 294//138
f 294//137 314//137 315//137 295//137
f 295//136 315//136 316//136 296//136
f 296//135 316//135 317//135 297//135
f 297//134 317//134 318//134 298//134
f 298//133 318//133 319//133 299//133
f 299//132 319//132 320//132 300//132
f 300//131 320//131 301//131 281//131
f 301//150 1//150 2//150 302//150
f 302//149 2//149 3//149 303//149
f 303//148 3//148 4//148 304//148
f 304//147 4//147 5//147 305//147
f 305//146 5//146 6//146 306//146
f 306//145 6//145 7//145 307//145
f 307//144 7//144 8//144 308//144
f 308//143 8//143 9//143 309//143
f 309//142 9//142 10//142 310//142
f 310//141 10//141 11//141 311//141
f 311//160 11//160 12//160 312//160
f 312//159 12//159 13//159 313//159
f 313//158 13//158 14//158 314//158
f 314//157 14//157 15//157 315//157
f 315//156 15//156 16//156 316//156
f 316//155 16//155 17//155 317//155
f 317//154 17//154 18//154 318//154
f 318//153 18//153 19//153 319//153
f 319//152 19//152 20//152 320//152
f 320//151 20//151 1//151 301//151
